<svg width="30" height="27" viewBox="0 0 30 27" fill="none" xmlns="http://www.w3.org/2000/svg">
<path d="M10.6349 0.273438L7.97313 3.18253H3.36222C1.75494 3.18253 0.453125 4.48435 0.453125 6.09162V23.5462C0.453125 25.1534 1.75494 26.4553 3.36222 26.4553H26.6349C28.2422 26.4553 29.544 25.1534 29.544 23.5462V6.09162C29.544 4.48435 28.2422 3.18253 26.6349 3.18253H22.024L19.3622 0.273438H10.6349ZM14.9986 22.0916C10.984 22.0916 7.72585 18.8334 7.72585 14.8189C7.72585 10.8043 10.984 7.54616 14.9986 7.54616C19.0131 7.54616 22.2713 10.8043 22.2713 14.8189C22.2713 18.8334 19.0131 22.0916 14.9986 22.0916Z" fill="#B0BEC5"/>
</svg>
