<svg xmlns="http://www.w3.org/2000/svg" viewBox="0 0 21.08 21.1"><defs><style>.cls-1{fill:#333;}</style></defs><title>Asset 10</title><g id="Layer_2" data-name="Layer 2"><g id="Layer_1-2" data-name="Layer 1"><path class="cls-1" d="M21.07,8.48a.39.39,0,0,0-.24-.29,9.73,9.73,0,0,0-7.31.11l-5.92-5A4.44,4.44,0,0,0,6.78.15.4.4,0,0,0,6.49,0a.42.42,0,0,0-.3.12L.12,6.19a.39.39,0,0,0-.12.3.4.4,0,0,0,.15.29,4.54,4.54,0,0,0,3.08.82l5.06,6a10.41,10.41,0,0,0-.12,7.3.41.41,0,0,0,.29.25h.08A.43.43,0,0,0,8.82,21l5.8-5.8,5.4,5.4a.39.39,0,0,0,.28.12.38.38,0,0,0,.28-.12.39.39,0,0,0,0-.56l-5.4-5.41L21,8.84a.4.4,0,0,0,.1-.36Zm-7,6.15L8.7,20a10.17,10.17,0,0,1,.41-6.34.38.38,0,0,0-.06-.42L3.7,6.92a.41.41,0,0,0-.31-.14H3.33A4.14,4.14,0,0,1,1,6.41L6.4,1a3.75,3.75,0,0,1,.38,2.33.4.4,0,0,0,.14.37L13.2,9.08a.41.41,0,0,0,.44.05A9.1,9.1,0,0,1,20,8.72Z"/></g></g></svg>