<?xml version="1.0" encoding="UTF-8"?>
<svg width="24px" height="24px" viewBox="0 0 24 24" version="1.1" xmlns="http://www.w3.org/2000/svg" xmlns:xlink="http://www.w3.org/1999/xlink">
    <title>05585107-416C-4185-9450-1F4804F82A5A</title>
    <g id="Page-1" stroke="none" stroke-width="1" fill="none" fill-rule="evenodd">
        <g id="Tribyl-icons" transform="translate(-391.000000, -357.000000)">
            <g id="Group-5" transform="translate(379.000000, 345.000000)">
                <g id="notifications-24px" transform="translate(12.000000, 12.000000)">
                    <path d="M12,22 C13.1,22 14,21.1 14,20 L10,20 C10,21.1 10.89,22 12,22 Z M18,16 L18,11 C18,7.93 16.36,5.36 13.5,4.68 L13.5,4 C13.5,3.17 12.83,2.5 12,2.5 C11.17,2.5 10.5,3.17 10.5,4 L10.5,4.68 C7.63,5.36 6,7.92 6,11 L6,16 L4,18 L4,19 L20,19 L20,18 L18,16 Z" id="Shape-Copy" fill="#0080FF" fill-rule="nonzero"></path>
                    <polygon id="Path" points="0 0 24 0 24 24 0 24"></polygon>
                </g>
            </g>
        </g>
    </g>
</svg>