<?xml version="1.0" encoding="UTF-8"?>
<svg width="24px" height="24px" viewBox="0 0 24 24" version="1.1" xmlns="http://www.w3.org/2000/svg" xmlns:xlink="http://www.w3.org/1999/xlink">
    <title>E8F75C37-B6BF-4249-A9DE-69DDA8F303CF</title>
    <g id="Page-1" stroke="none" stroke-width="1" fill="none" fill-rule="evenodd">
        <g id="Tribyl-icons" transform="translate(-673.000000, -343.000000)">
            <g id="analytics-24px" transform="translate(673.000000, 343.000000)">
                <polygon id="Path" points="0 0 24 0 24 24 0 24"></polygon>
                <path d="M19,3 L5,3 C3.9,3 3,3.9 3,5 L3,19 C3,20.1 3.9,21 5,21 L19,21 C20.1,21 21,20.1 21,19 L21,5 C21,3.9 20.1,3 19,3 Z M9,17 L7,17 L7,12 L9,12 L9,17 Z M13,17 L11,17 L11,14 L13,14 L13,17 Z M13,12 L11,12 L11,10 L13,10 L13,12 Z M17,17 L15,17 L15,7 L17,7 L17,17 Z" id="Shape" fill="#0080FF" fill-rule="nonzero"></path>
            </g>
        </g>
    </g>
</svg>