<?xml version="1.0" encoding="UTF-8"?>
<svg width="32px" height="32px" viewBox="0 0 32 32" version="1.1" xmlns="http://www.w3.org/2000/svg" xmlns:xlink="http://www.w3.org/1999/xlink">
    <title>6B093CDD-B279-4D20-8148-027B4C22E71B</title>
    <g id="Page-1" stroke="none" stroke-width="1" fill="none" fill-rule="evenodd">
        <g id="Tribyl-icons" transform="translate(-72.000000, -80.000000)">
            <g id="Group-3" transform="translate(72.000000, 80.000000)">
                <rect id="Rectangle" fill="#F2EEF9" x="0" y="0" width="32" height="32" rx="16"></rect>
                <g id="call-24px" transform="translate(4.000000, 4.000000)">
                    <polygon id="Path" points="0 0 24 0 24 24 0 24"></polygon>
                    <path d="M20.01,15.38 C18.78,15.38 17.59,15.18 16.48,14.82 C16.13,14.7 15.74,14.79 15.47,15.06 L13.9,17.03 C11.07,15.68 8.42,13.13 7.01,10.2 L8.96,8.54 C9.23,8.26 9.31,7.87 9.2,7.52 C8.83,6.41 8.64,5.22 8.64,3.99 C8.64,3.45 8.19,3 7.65,3 L4.19,3 C3.65,3 3,3.24 3,3.99 C3,13.28 10.73,21 20.01,21 C20.72,21 21,20.37 21,19.82 L21,16.37 C21,15.83 20.55,15.38 20.01,15.38 Z" id="Path" fill="#8652C9" fill-rule="nonzero"></path>
                </g>
            </g>
        </g>
    </g>
</svg>