<?xml version="1.0" encoding="UTF-8"?>
<svg width="18px" height="18px" viewBox="0 0 18 18" version="1.1" xmlns="http://www.w3.org/2000/svg" xmlns:xlink="http://www.w3.org/1999/xlink">
    <title>DE7440B7-B737-4133-BC3F-102AE3293D4F</title>
    <g id="Page-1" stroke="none" stroke-width="1" fill="none" fill-rule="evenodd">
        <g id="Tribyl-icons" transform="translate(-346.000000, -350.000000)" fill-rule="nonzero">
            <g id="Group-2" transform="translate(347.000000, 351.000000)">
                <circle id="Oval" stroke="#FFFFFF" stroke-width="0.888888889" fill="#DE5E56" cx="8" cy="8" r="8"></circle>
                <path d="M7.67466667,11.1111111 L3.53422222,11.1111111 L3.53422222,10.5338667 L5.72177778,8.10328889 C6.04533333,7.73582222 6.26844444,7.43777778 6.38933333,7.20924444 C6.51377778,6.97768889 6.576,6.73902222 6.576,6.49306667 C6.576,6.1632 6.47644444,5.89262222 6.27733333,5.68142222 C6.07733333,5.47022222 5.81066667,5.36462222 5.47822222,5.36462222 C5.07911111,5.36462222 4.768,5.47884444 4.54488889,5.70746667 C4.32533333,5.93315556 4.21511111,6.24853333 4.21511111,6.65368889 L3.41244444,6.65368889 C3.41244444,6.07208889 3.59911111,5.60186667 3.97244444,5.24302222 C4.34844444,4.88426667 4.85066667,4.70488889 5.47822222,4.70488889 C6.06577778,4.70488889 6.52977778,4.85964444 6.87111111,5.16924444 C7.21333333,5.476 7.384,5.88542222 7.384,6.3976 C7.384,7.01964444 6.98755556,7.76044444 6.19466667,8.61982222 L4.50133333,10.4557333 L7.67466667,10.4557333 L7.67466667,11.1111111 Z M9.69244444,7.5608 L10.296,7.5608 C10.6746667,7.55493333 10.9733333,7.45511111 11.1902222,7.26124444 C11.4071111,7.06737778 11.5155556,6.80551111 11.5155556,6.47573333 C11.5155556,5.73493333 11.1466667,5.36462222 10.4088889,5.36462222 C10.0613333,5.36462222 9.784,5.46444444 9.57511111,5.66408889 C9.36977778,5.8608 9.26755556,6.12266667 9.26755556,6.44968889 L8.464,6.44968889 C8.464,5.94906667 8.64711111,5.53386667 9.01155556,5.204 C9.37866667,4.8712 9.84444444,4.70488889 10.4088889,4.70488889 C11.0053333,4.70488889 11.472,4.86257778 11.8106667,5.17795556 C12.1493333,5.49333333 12.3182222,5.93173333 12.3182222,6.49306667 C12.3182222,6.76791111 12.2284444,7.03413333 12.0497778,7.29164444 C11.8728889,7.54915556 11.6311111,7.7416 11.3244444,7.86888889 C11.672,7.97884444 11.9395556,8.16115556 12.128,8.41582222 C12.3182222,8.6704 12.4142222,8.98151111 12.4142222,9.34897778 C12.4142222,9.91608889 12.2284444,10.3660444 11.8586667,10.6987556 C11.488,11.0315556 11.0062222,11.1979556 10.4133333,11.1979556 C9.82044444,11.1979556 9.33688889,11.0373333 8.96355556,10.7161778 C8.59288889,10.3949333 8.408,9.97102222 8.408,9.44444444 L9.21511111,9.44444444 C9.21511111,9.77715556 9.32355556,10.0433778 9.54044444,10.2430222 C9.75822222,10.4426667 10.0488889,10.5425778 10.4133333,10.5425778 C10.8008889,10.5425778 11.0977778,10.4412444 11.3031111,10.2387556 C11.5084444,10.0361778 11.6106667,9.74533333 11.6106667,9.36631111 C11.6106667,8.99884444 11.4986667,8.71671111 11.2728889,8.52 C11.0471111,8.3232 10.7217778,8.22195556 10.296,8.21617778 L9.69244444,8.21617778 L9.69244444,7.5608 Z" id="Shape" fill="#FFFFFF"></path>
            </g>
        </g>
    </g>
</svg>