<?xml version="1.0" encoding="UTF-8"?>
<svg width="16px" height="16px" viewBox="0 0 16 16" version="1.1" xmlns="http://www.w3.org/2000/svg" xmlns:xlink="http://www.w3.org/1999/xlink">
    <title>BC1BE9A5-29CD-4049-B092-B27E4AC2913B</title>
    <g id="Page-1" stroke="none" stroke-width="1" fill="none" fill-rule="evenodd">
        <g id="Tribyl-icons" transform="translate(-24.000000, -693.000000)">
            <g id="cloud_download-24px" transform="translate(24.000000, 693.000000)">
                <polygon id="Path" points="0 0 16 0 16 16 0 16"></polygon>
                <path d="M12.9,6.69333333 C12.4466667,4.39333333 10.4266667,2.66666667 8,2.66666667 C6.07333333,2.66666667 4.4,3.76 3.56666667,5.36 C1.56,5.57333333 0,7.27333333 0,9.33333333 C0,11.54 1.79333333,13.3333333 4,13.3333333 L12.6666667,13.3333333 C14.5066667,13.3333333 16,11.84 16,10 C16,8.24 14.6333333,6.81333333 12.9,6.69333333 Z M11.3333333,8.66666667 L8,12 L4.66666667,8.66666667 L6.66666667,8.66666667 L6.66666667,6 L9.33333333,6 L9.33333333,8.66666667 L11.3333333,8.66666667 Z" id="Shape" fill="#0080FF" fill-rule="nonzero"></path>
            </g>
        </g>
    </g>
</svg>