<?xml version="1.0" encoding="UTF-8"?>
<svg width="12px" height="12px" viewBox="0 0 12 12" version="1.1" xmlns="http://www.w3.org/2000/svg" xmlns:xlink="http://www.w3.org/1999/xlink">
    <title>FAB49474-E940-4F2B-B142-9AA9B98C392E</title>
    <g id="Page-1" stroke="none" stroke-width="1" fill="none" fill-rule="evenodd">
        <g id="Tribyl-icons" transform="translate(-764.000000, -506.000000)">
            <g id="thumb_up-24px" transform="translate(764.000000, 506.000000)">
                <path d="M0,0 L12,0 L12,12 L0,12 L0,0 Z M0,0 L12,0 L12,12 L0,12 L0,0 Z" id="Shape"></path>
                <path d="M4.84090909,10.5 L9.44318182,10.5 C9.86761364,10.5 10.2306818,10.25625 10.3840909,9.90525 L11.9284091,6.468375 C11.9744318,6.35625 12,6.23925 12,6.1125 L12,5.1375 C12,4.60125 11.5397727,4.1625 10.9772727,4.1625 L7.75056818,4.1625 L8.23636364,1.934625 L8.25170455,1.778625 C8.25170455,1.57875 8.16477273,1.3935 8.02670455,1.261875 L7.48465909,0.75 L4.11477273,3.962625 C3.93068182,4.138125 3.81818182,4.381875 3.81818182,4.65 L3.81818182,9.525 C3.81818182,10.06125 4.27840909,10.5 4.84090909,10.5 Z M4.84090909,4.65 L7.06022727,2.53425 L6.375,5.1375 L10.9772727,5.1375 L10.9772727,6.1125 L9.44318182,9.525 L4.84090909,9.525 L4.84090909,4.65 Z M0.75,4.65 L2.79545455,4.65 L2.79545455,10.5 L0.75,10.5 L0.75,4.65 Z" id="Shape" fill="#5C6C73" fill-rule="nonzero"></path>
            </g>
        </g>
    </g>
</svg>