<?xml version="1.0" encoding="UTF-8"?>
<svg width="12px" height="12px" viewBox="0 0 12 12" version="1.1" xmlns="http://www.w3.org/2000/svg" xmlns:xlink="http://www.w3.org/1999/xlink">
    <title>5E4470B2-0C2D-4216-B654-E0A130522531</title>
    <g id="Customer-analytics" stroke="none" stroke-width="1" fill="none" fill-rule="evenodd">
        <g id="Icons" transform="translate(-132.000000, -128.000000)">
            <g id="local_movies-24px" transform="translate(132.000000, 128.000000)">
                <polygon id="Path" points="0 0 12 0 12 12 0 12"></polygon>
                <path d="M9.46875,1.5 L9.46875,2.5 L8.4375,2.5 L8.4375,1.5 L4.3125,1.5 L4.3125,2.5 L3.28125,2.5 L3.28125,1.5 L2.25,1.5 L2.25,10.5 L3.28125,10.5 L3.28125,9.5 L4.3125,9.5 L4.3125,10.5 L8.4375,10.5 L8.4375,9.5 L9.46875,9.5 L9.46875,10.5 L10.5,10.5 L10.5,1.5 L9.46875,1.5 Z M4.3125,8.5 L3.28125,8.5 L3.28125,7.5 L4.3125,7.5 L4.3125,8.5 Z M4.3125,6.5 L3.28125,6.5 L3.28125,5.5 L4.3125,5.5 L4.3125,6.5 Z M4.3125,4.5 L3.28125,4.5 L3.28125,3.5 L4.3125,3.5 L4.3125,4.5 Z M9.46875,8.5 L8.4375,8.5 L8.4375,7.5 L9.46875,7.5 L9.46875,8.5 Z M9.46875,6.5 L8.4375,6.5 L8.4375,5.5 L9.46875,5.5 L9.46875,6.5 Z M9.46875,4.5 L8.4375,4.5 L8.4375,3.5 L9.46875,3.5 L9.46875,4.5 Z" id="Shape" fill="#5C6C73" fill-rule="nonzero"></path>
            </g>
        </g>
    </g>
</svg>