<?xml version="1.0" encoding="UTF-8"?>
<svg width="12px" height="12px" viewBox="0 0 12 12" version="1.1" xmlns="http://www.w3.org/2000/svg" xmlns:xlink="http://www.w3.org/1999/xlink">
    <title>8A0FC6FE-2994-474C-8D0E-61D50902FE15</title>
    <defs>
        <rect id="path-1" x="-1.36424205e-12" y="-1.70530257e-12" width="12" height="12"></rect>
    </defs>
    <g id="Customer-analytics" stroke="none" stroke-width="1" fill="none" fill-rule="evenodd">
        <g id="Icons" transform="translate(-60.000000, -128.000000)">
            <g id="push_pin-24px" transform="translate(60.000000, 128.000000)">
                <mask id="mask-2" fill="white">
                    <use xlink:href="#path-1"></use>
                </mask>
                <g id="Rectangle"></g>
                <path d="M8,4.5 L8,2 L8.5,2 C8.775,2 9,1.775 9,1.5 L9,1.5 C9,1.225 8.775,1 8.5,1 L3.5,1 C3.225,1 3,1.225 3,1.5 L3,1.5 C3,1.775 3.225,2 3.5,2 L4,2 L4,4.5 C4,5.33 3.33,6 2.5,6 L2.5,6 L2.5,7 L5.485,7 L5.485,10.5 L5.985,11 L6.485,10.5 L6.485,7 L9.5,7 L9.5,6 L9.5,6 C8.67,6 8,5.33 8,4.5 Z" id="Path" fill="#5C6C73" fill-rule="nonzero" mask="url(#mask-2)" transform="translate(6.000000, 6.000000) rotate(-45.000000) translate(-6.000000, -6.000000) "></path>
            </g>
        </g>
    </g>
</svg>