<?xml version="1.0" encoding="UTF-8"?>
<svg width="120px" height="120px" viewBox="0 0 120 120" version="1.1" xmlns="http://www.w3.org/2000/svg" xmlns:xlink="http://www.w3.org/1999/xlink">
    <title>644A4389-30B6-4B63-AB96-E73338EBFF32</title>
    <defs>
        <circle id="path-1" cx="55" cy="55" r="55"></circle>
        <filter x="-6.8%" y="-5.0%" width="113.6%" height="113.6%" filterUnits="objectBoundingBox" id="filter-2">
            <feMorphology radius="0.5" operator="dilate" in="SourceAlpha" result="shadowSpreadOuter1"></feMorphology>
            <feOffset dx="0" dy="2" in="shadowSpreadOuter1" result="shadowOffsetOuter1"></feOffset>
            <feGaussianBlur stdDeviation="2" in="shadowOffsetOuter1" result="shadowBlurOuter1"></feGaussianBlur>
            <feComposite in="shadowBlurOuter1" in2="SourceAlpha" operator="out" result="shadowBlurOuter1"></feComposite>
            <feColorMatrix values="0 0 0 0 0.423529412   0 0 0 0 0.282352941   0 0 0 0 0.356862745  0 0 0 0.112447245 0" type="matrix" in="shadowBlurOuter1"></feColorMatrix>
        </filter>
        <linearGradient x1="0%" y1="49.9881997%" x2="100%" y2="49.9881997%" id="linearGradient-3">
            <stop stop-color="#315676" offset="0%"></stop>
            <stop stop-color="#E1B9E0" offset="100%"></stop>
        </linearGradient>
    </defs>
    <g id="Page-1" stroke="none" stroke-width="1" fill="none" fill-rule="evenodd">
        <g id="icons" transform="translate(-53.000000, -40.000000)">
            <g id="avatar" transform="translate(58.000000, 43.000000)">
                <g id="Oval">
                    <use fill="black" fill-opacity="1" filter="url(#filter-2)" xlink:href="#path-1"></use>
                    <use stroke="#F4F4F4" stroke-width="1" fill="#FFFFFF" fill-rule="evenodd" xlink:href="#path-1"></use>
                </g>
                <g id="Group-2">
                    <circle id="Oval" fill="#FFFFFF" cx="55" cy="55" r="55"></circle>
                    <g id="Artboard-5" transform="translate(19.250000, 16.500000)" fill-rule="nonzero">
                        <path d="M66,28.875 C66,31.3466799 63.2046827,33.4194991 62.5953663,35.6996003 C61.9672051,38.061358 63.3303149,41.2491027 62.1368086,43.3156406 C60.9433023,45.3821786 57.4664301,45.8281488 55.767254,47.5146699 C54.068078,49.201191 53.6597732,52.6715929 51.5648556,53.8838781 C49.469938,55.0961633 46.3102872,53.7142838 43.9515419,54.3455514 C41.6713167,54.9548347 39.5983847,57.75 37.1234296,57.75 C34.6484745,57.75 32.5786833,54.9548347 30.2984581,54.3455514 C27.9397128,53.7174244 24.7486539,55.0804601 22.6851444,53.8838781 C20.6216349,52.6872961 20.1724996,49.2168942 18.482746,47.5146699 C16.7929923,45.8124456 13.3255425,45.4104443 12.1131914,43.3156406 C10.9008403,41.220837 12.2827949,38.061358 11.6546337,35.6996003 C11.0453173,33.4194991 8.25,31.3466799 8.25,28.875 C8.25,26.4033201 11.0453173,24.3305009 11.6546337,22.0503997 C12.2827949,19.688642 10.9196851,16.5008973 12.1131914,14.4343594 C13.3066977,12.3678214 16.7835699,11.9218512 18.482746,10.2353301 C20.181922,8.54880901 20.587086,5.07840711 22.6851444,3.86612193 C24.7832028,2.65383674 27.9397128,4.03571623 30.2984581,3.40444855 C32.5786833,2.79516533 34.6516153,0 37.1234296,0 C39.5952439,0 41.6713167,2.79516533 43.9515419,3.40444855 C46.3102872,4.03257559 49.4982053,2.66953992 51.5648556,3.86612193 C53.631506,5.06270394 54.0775004,8.53310583 55.767254,10.2353301 C57.4570077,11.9375544 60.9244575,12.3395557 62.1368086,14.4343594 C63.3491597,16.529163 61.9640643,19.688642 62.5953663,22.0503997 C63.2046827,24.3305009 66,26.4033201 66,28.875 Z" id="Path" fill="#00214E"></path>
                        <circle id="Oval" fill="#E18477" cx="22" cy="44" r="5.5"></circle>
                        <circle id="Oval" fill="#A76962" cx="22" cy="44" r="5.5"></circle>
                        <path d="M71.5,81.6573656 C50.3959887,97.5619077 20.9596947,97.4346943 0,81.3483674 L15.3620187,74.3001168 C16.0936174,73.9634999 16.7957756,73.5687187 17.4614315,73.1197434 C17.6634802,72.9837841 17.865529,72.8416449 18.0581067,72.6933257 C19.7300246,71.4412278 21.1062277,69.850775 22.0927676,68.0305418 C23.3555722,65.6976048 23.7722978,63.1205592 23.7912398,60.4940739 C23.7912398,58.7266038 23.6933725,56.9591337 23.6744304,55.1885736 C23.6618024,54.210079 23.651279,53.2305545 23.6428603,52.25 L24.2742626,52.5589983 L25.9095947,53.4056535 L26.6704345,53.5323428 L35.472183,54.9969946 L45.2968032,56.6346855 L45.5935623,66.5226302 L45.7387849,71.3244634 L45.7387849,71.4264328 L49.558769,72.9467043 L71.5,81.6573656 Z" id="Path" fill="#E18477"></path>
                        <path d="M46.75,71.3850459 L46.2654462,71.4365708 C41.5302303,71.8614542 36.8516001,70.1365786 33.4688215,66.7188255 L24.853833,56.2496175 C24.8255149,55.3157293 24.7909039,56.2496175 24.7814645,55.312509 C24.7688787,54.2927461 24.7583905,53.2719098 24.75,52.25 L25.3792906,52.5720304 L27.0154462,53.4382921 L27.7737414,53.5703246 L36.5460526,55.0967487 L46.3378146,56.8035097 L46.6335812,67.1084823 L46.75,71.3850459 Z" id="Path" fill="#A76962"></path>
                        <path d="M22.7618749,32.848595 C22.5206582,33.1668003 22.3069219,33.7873006 22.0779187,34.7928294 C21.5496846,37.1252741 23.8641437,52.4404948 24.3068833,56.9462817 L35.4272794,65.4932758 C39.1230785,68.3687572 43.8437267,69.4087457 48.3400074,68.3380311 C50.1323393,67.8957257 51.2681952,67.6093409 52.0773399,66.110594 C53.6406685,63.2467464 57.4787624,53.4492055 57.7291393,46.5377866 C57.7993669,44.577642 57.7535663,41.5865123 56.5932833,39.9127525 C56.0284087,39.101329 55.738338,39.0854187 55.9429142,37.9366976 C56.1474904,36.7879765 56.4558814,35.5597041 56.7093116,34.3696163 C57.4085348,31.0825557 57.9673026,27.3690999 56.9566351,24.0979496 C56.4192409,22.3478205 55.4696409,21.1895532 54.1200486,20.0662885 C52.678855,18.8634725 52.0834467,18.9207495 51.2193412,20.7026991 C50.6361464,21.9118792 50.0498981,22.9301361 48.8682415,23.6174596 C47.1552975,24.607078 45.9889078,23.9643033 44.2881772,23.8274751 C42.7981296,23.7097391 42.9569052,24.909373 42.6301939,26.0549121 C42.2919226,27.2574102 41.5606366,28.2986899 40.5630582,28.998311 C38.7087905,30.252109 36.323695,30.2657798 34.4563058,29.0333136 C34.2029847,28.8438893 33.8978334,28.7445806 33.5860936,28.7501109 C32.5662659,28.8073879 32.5204653,30.0833911 32.2884087,30.9998223 C31.7968151,32.909054 29.6563984,33.9654956 27.754145,33.8127571 C24.6519148,33.570921 23.5465926,31.7698791 22.7618749,32.848595 Z" id="Path" fill="#E18477"></path>
                        <path d="M71.5,80.9781547 C50.3959887,97.7948704 20.9596947,97.6603609 0,80.6514345 L15.3620187,73.1989453 C16.0936174,72.8430225 16.7957756,72.4255994 17.4614315,71.950874 C17.6634802,71.807117 17.865529,71.6568257 18.0581067,71.5 C25.4928691,76.9758315 35.6395046,80.4292647 44.415997,76.3419942 C46.5059387,75.3618335 48.4254018,73.7805074 49.561926,71.7483074 L71.5,80.9781547 Z" id="Path" fill="url(#linearGradient-3)"></path>
                    </g>
                </g>
            </g>
        </g>
    </g>
</svg>