<?xml version="1.0" encoding="UTF-8"?>
<svg width="24px" height="24px" viewBox="0 0 24 24" version="1.1" xmlns="http://www.w3.org/2000/svg" xmlns:xlink="http://www.w3.org/1999/xlink">
    <title>C346D113-2CD0-4221-81D7-F045DBD7262C</title>
    <g id="Page-1" stroke="none" stroke-width="1" fill="none" fill-rule="evenodd">
        <g id="Tribyl-icons" transform="translate(-105.000000, -349.000000)">
            <g id="icon/search/24px-copy-3" transform="translate(105.000000, 349.000000)">
                <g id="Group" transform="translate(0.000000, -0.000000)">
                    <rect id="Rectangle" x="0" y="0" width="24" height="24"></rect>
                    <rect id="Rectangle" x="0" y="0" width="24" height="24"></rect>
                </g>
                <g id="whistle" transform="translate(1.000000, 5.000000)" fill="#ADBEC6" fill-rule="nonzero">
                    <path d="M20.2100182,0.648416364 L9.19150909,2.53836545 C9.17903636,2.54049091 9.16656364,2.54306182 9.15434545,2.54601455 C8.04606727,2.73988909 7.04052364,3.26252182 6.24392364,4.05910909 C5.38858727,4.91450909 4.87821091,5.98589091 4.71148364,7.09914545 C3.80420727,6.37610909 2.47508545,6.43401818 1.63564545,7.27338182 C0.733752727,8.17536364 0.733752727,9.64281818 1.63574727,10.5448 C2.53769091,11.4467818 4.00524727,11.4467818 4.90714,10.5449273 C5.00454182,10.4475636 5.09074364,10.3432 5.16714545,10.234 C5.42769818,10.7889091 5.78635273,11.3088182 6.24416545,11.7666182 C8.36900909,13.8914364 11.8264364,13.8913091 13.9513818,11.7664909 C14.7672,10.9505455 15.4285091,9.89049091 16.1285091,8.76807273 C16.8456909,7.61854545 17.5871818,6.42981818 18.5161455,5.50085455 C19.3518182,4.66518182 20.2462909,4.13903636 21.2506,3.89238182 C21.4029455,3.85496364 21.532,3.75418909 21.6049273,3.61551273 C21.6779818,3.47683636 21.6882909,3.31354545 21.6330545,3.16682545 L20.8159636,0.995590909 C20.7233091,0.749636364 20.4691455,0.603934545 20.2100182,0.648416364 Z M2.41102909,9.76958182 C1.93655636,9.29510909 1.93650545,8.5232 2.41092727,8.04872727 C2.88545091,7.57425455 3.65748727,7.57412727 4.13196,8.0486 C4.60643273,8.52307273 4.60638182,9.29510909 4.13185818,9.76970909 C3.65743636,10.2440545 2.88550182,10.2440545 2.41102909,9.76958182 Z" id="Shape"></path>
                </g>
                <g id="ind-red" transform="translate(4.000000, 1.000000)" fill="#0080FF" stroke="#FFFFFF">
                    <circle id="Oval" cx="5.5" cy="5.5" r="5"></circle>
                </g>
            </g>
        </g>
    </g>
</svg>