<?xml version="1.0" encoding="UTF-8"?>
<svg width="12px" height="12px" viewBox="0 0 12 12" version="1.1" xmlns="http://www.w3.org/2000/svg" xmlns:xlink="http://www.w3.org/1999/xlink">
    <title>27E88C8B-6229-48D5-8A38-AB4CE22DE776</title>
    <g id="Page-1" stroke="none" stroke-width="1" fill="none" fill-rule="evenodd">
        <g id="Tribyl-icons" transform="translate(-697.000000, -506.000000)">
            <g id="insights-24px" transform="translate(697.000000, 506.000000)">
                <rect id="Rectangle" x="0" y="0" width="12" height="12"></rect>
                <g id="Group" transform="translate(0.500000, 1.500000)" fill="#5C6C73" fill-rule="nonzero">
                    <path d="M10,2.5 C9.275,2.5 8.87,3.22 9.035,3.755 L7.26,5.535 C7.11,5.49 6.89,5.49 6.74,5.535 L5.465,4.26 C5.635,3.725 5.23,3 4.5,3 C3.775,3 3.365,3.72 3.535,4.26 L1.255,6.535 C0.72,6.37 0,6.775 0,7.5 C0,8.05 0.45,8.5 1,8.5 C1.725,8.5 2.13,7.78 1.965,7.245 L4.24,4.965 C4.39,5.01 4.61,5.01 4.76,4.965 L6.035,6.24 C5.865,6.775 6.27,7.5 7,7.5 C7.725,7.5 8.135,6.78 7.965,6.24 L9.745,4.465 C10.28,4.63 11,4.225 11,3.5 C11,2.95 10.55,2.5 10,2.5 Z" id="Path"></path>
                    <polygon id="Path" points="7 3 7.47 1.965 8.5 1.5 7.47 1.035 7 0 6.54 1.035 5.5 1.5 6.54 1.965"></polygon>
                    <polygon id="Path" points="1.25 4 1.5 3 2.5 2.75 1.5 2.5 1.25 1.5 1 2.5 0 2.75 1 3"></polygon>
                </g>
            </g>
        </g>
    </g>
</svg>