<?xml version="1.0" encoding="UTF-8"?>
<svg width="16px" height="16px" viewBox="0 0 16 16" version="1.1" xmlns="http://www.w3.org/2000/svg" xmlns:xlink="http://www.w3.org/1999/xlink">
    <title>10CEB27F-8617-42AF-AB64-EC75C6FD6567</title>
    <g id="Page-1" stroke="none" stroke-width="1" fill="none" fill-rule="evenodd">
        <g id="Tribyl-icons" transform="translate(-289.000000, -351.000000)" fill="#B0BEC5" fill-rule="nonzero">
            <g id="search" transform="translate(289.000000, 351.000000)">
                <path d="M11.4351,10.0629 L10.7078,10.0629 L10.4563,9.8113 C11.3528,8.773 11.8925,7.4237 11.8925,5.94625 C11.8925,2.66209 9.2304,0 5.94625,0 C2.66209,0 0,2.66209 0,5.94625 C0,9.2304 2.66209,11.8925 5.94625,11.8925 C7.4237,11.8925 8.773,11.3528 9.8113,10.4608 L10.0629,10.7124 L10.0629,11.4351 L14.6369,16 L16,14.6369 L11.4351,10.0629 Z M5.94625,10.0629 C3.67296,10.0629 1.82962,8.2196 1.82962,5.94625 C1.82962,3.67296 3.67296,1.82962 5.94625,1.82962 C8.2196,1.82962 10.0629,3.67296 10.0629,5.94625 C10.0629,8.2196 8.2196,10.0629 5.94625,10.0629 Z" id="Shape"></path>
            </g>
        </g>
    </g>
</svg>