<?xml version="1.0" encoding="UTF-8"?>
<svg width="17px" height="17px" viewBox="0 0 17 17" version="1.1" xmlns="http://www.w3.org/2000/svg" xmlns:xlink="http://www.w3.org/1999/xlink">
    <title>A558D455-9317-4761-A1EE-014E8E367A09</title>
    <g id="Customer-analytics" stroke="none" stroke-width="1" fill="none" fill-rule="evenodd">
        <g id="Icons" transform="translate(-64.000000, -88.000000)">
            <g id="attach_money-24px" transform="translate(64.000000, 88.000000)">
                <polygon id="Path" points="0 0 16 0 16 16 0 16"></polygon>
                <path d="M7.86666667,7.26666667 C6.35333333,6.87333333 5.86666667,6.46666667 5.86666667,5.83333333 C5.86666667,5.10666667 6.54,4.6 7.66666667,4.6 C8.85333333,4.6 9.29333333,5.16666667 9.33333333,6 L10.8066667,6 C10.76,4.85333333 10.06,3.8 8.66666667,3.46 L8.66666667,2 L6.66666667,2 L6.66666667,3.44 C5.37333333,3.72 4.33333333,4.56 4.33333333,5.84666667 C4.33333333,7.38666667 5.60666667,8.15333333 7.46666667,8.6 C9.13333333,9 9.46666667,9.58666667 9.46666667,10.2066667 C9.46666667,10.6666667 9.14,11.4 7.66666667,11.4 C6.29333333,11.4 5.75333333,10.7866667 5.68,10 L4.21333333,10 C4.29333333,11.46 5.38666667,12.28 6.66666667,12.5533333 L6.66666667,14 L8.66666667,14 L8.66666667,12.5666667 C9.96666667,12.32 11,11.5666667 11,10.2 C11,8.30666667 9.38,7.66 7.86666667,7.26666667 Z" id="Path" fill="#37C360" fill-rule="nonzero"></path>
            </g>
        </g>
    </g>
</svg>