<svg id="Layer_1" data-name="Layer 1" xmlns="http://www.w3.org/2000/svg" viewBox="0 0 24 24"><defs><style>.cls-1{fill:#fff;}</style></defs><title>ic_</title><path class="cls-1" d="M12,7.24A4.76,4.76,0,1,0,16.76,12,4.76,4.76,0,0,0,12,7.24Zm0,7.52A2.76,2.76,0,1,1,14.76,12,2.77,2.77,0,0,1,12,14.76Z"/><path class="cls-1" d="M23.27,9.17H21.49a9.33,9.33,0,0,0-.78-1.88L22,6a.69.69,0,0,0,.21-.51A.72.72,0,0,0,22,5L19,2a.72.72,0,0,0-.52-.21A.69.69,0,0,0,18,2L16.71,3.29a9.33,9.33,0,0,0-1.88-.78V.73A.73.73,0,0,0,14.1,0H9.9a.73.73,0,0,0-.73.73V2.51a9.33,9.33,0,0,0-1.88.78L6,2a.69.69,0,0,0-.51-.21h0A.72.72,0,0,0,5,2L2,5a.72.72,0,0,0-.21.52A.69.69,0,0,0,2,6L3.29,7.29a9.33,9.33,0,0,0-.78,1.88H.73A.73.73,0,0,0,0,9.9v4.2a.73.73,0,0,0,.73.73H2.51a9.33,9.33,0,0,0,.78,1.88L2,18a.69.69,0,0,0-.21.51A.72.72,0,0,0,2,19l3,3a.72.72,0,0,0,.52.21A.69.69,0,0,0,6,22l1.26-1.26a9.33,9.33,0,0,0,1.88.78v1.78A.73.73,0,0,0,9.9,24h4.2a.73.73,0,0,0,.73-.73V21.49a9.33,9.33,0,0,0,1.88-.78L18,22a.69.69,0,0,0,.51.21h0A.72.72,0,0,0,19,22l3-3a.72.72,0,0,0,.21-.52A.69.69,0,0,0,22,18l-1.26-1.26a9.33,9.33,0,0,0,.78-1.88h1.78A.73.73,0,0,0,24,14.1V9.9A.73.73,0,0,0,23.27,9.17ZM12,18.23A6.23,6.23,0,1,1,18.23,12,6.24,6.24,0,0,1,12,18.23Z"/></svg>