<svg id="Layer_1" data-name="Layer 1" xmlns="http://www.w3.org/2000/svg" viewBox="0 0 24 24"><defs><style>.cls-1{fill:#fff;}</style></defs><title>ic-home</title><path class="cls-1" d="M23.63,10.31,12.68.26a1,1,0,0,0-1.36,0L.37,10.31a1,1,0,0,0-.26,1.1A1,1,0,0,0,1,12H2.78V22a1,1,0,0,0,1,1H9.26a1,1,0,0,0,1-1V16.61h3.48V22a1,1,0,0,0,1,1h5.48a1,1,0,0,0,1-1V12H23a1,1,0,0,0,.93-.63A1,1,0,0,0,23.63,10.31ZM12,2.36,20.39,10h-.17a1,1,0,0,0-1,1V21H15.74V15.61a1,1,0,0,0-1-1H9.26a1,1,0,0,0-1,1V21H4.78V11a1,1,0,0,0-1-1H3.61Z"/></svg>