<svg id="Layer_1" data-name="Layer 1" xmlns="http://www.w3.org/2000/svg" viewBox="0 0 24 24"><defs><style>.cls-1{fill:#fff;}.cls-2{fill:#252c37;}</style></defs><title>ic-</title><g id="My-opportunity-plans-My-opportunity-plans-My-opportunity-plans-My-opportunity-plans-"><g id="_02-A-Plan" data-name="02-A-Plan"><g id="Sidebar"><g id="ic_sidebar_browseplaybooks" data-name="ic sidebar browseplaybooks"><g id="Group"><g id="Rectangle-2-Copy-4"><path class="cls-1" d="M15.67,0h-11A4.67,4.67,0,0,0,0,4.67v11a4.67,4.67,0,0,0,4.67,4.66H8.06a6.89,6.89,0,0,1-1.63-2H4.67A2.67,2.67,0,0,1,2,15.67v-11A2.68,2.68,0,0,1,4.67,2h11a2.67,2.67,0,0,1,2.66,2.67V6.43a6.89,6.89,0,0,1,2,1.63V4.67A4.67,4.67,0,0,0,15.67,0Z"/></g><g id="Rectangle-2-Copy-5"><path class="cls-2" d="M7.5,12.92a4.57,4.57,0,0,1,.07-.83,6.25,6.25,0,0,0-.24,1.74,6.18,6.18,0,0,0,.24,1.73,4.28,4.28,0,0,1-.07-.81Zm6.33-5.59a6.25,6.25,0,0,0-1.74.24,4.57,4.57,0,0,1,.83-.07h1.83a4.28,4.28,0,0,1,.81.07A6.18,6.18,0,0,0,13.83,7.33Zm.92,12.84H12.92a4.4,4.4,0,0,1-.73-.06,6.22,6.22,0,0,0,3.28,0A4.28,4.28,0,0,1,14.75,20.17Z"/></g><g id="Group-2"><g id="Rectangle-2-Copy-6"><path class="cls-1" d="M20.11,12.19a6.38,6.38,0,0,0-1.78-3,6.44,6.44,0,0,0-2.77-1.58,6.18,6.18,0,0,0-1.73-.24,6.25,6.25,0,0,0-1.74.24,6.51,6.51,0,0,0-4.52,4.52,6.25,6.25,0,0,0-.24,1.74,6.18,6.18,0,0,0,.24,1.73,6.44,6.44,0,0,0,1.58,2.77,6.38,6.38,0,0,0,3,1.78,6.22,6.22,0,0,0,3.28,0,6.45,6.45,0,0,0,4.64-4.64,6.22,6.22,0,0,0,0-3.28Zm-6.28,6.14a4.5,4.5,0,1,1,4.5-4.5A4.51,4.51,0,0,1,13.83,18.33Z"/></g><g id="Line-7-Copy"><path class="cls-2" d="M23,23l-5-5"/><path class="cls-1" d="M23,24a1,1,0,0,1-.71-.29l-5-5a1,1,0,0,1,1.42-1.42l5,5a1,1,0,0,1,0,1.42A1,1,0,0,1,23,24Z"/></g></g></g></g></g></g></g></svg>