<svg id="Layer_1" data-name="Layer 1" xmlns="http://www.w3.org/2000/svg" viewBox="0 0 24 24"><defs><style>.cls-1{fill:#fff;}</style></defs><title>ic-</title><g id="My-opportunity-plans-My-opportunity-plans-My-opportunity-plans-My-opportunity-plans-"><g id="_02-A-Plan" data-name="02-A-Plan"><g id="Sidebar"><g id="ic_sidebar_manageplaybooks" data-name="ic sidebar manageplaybooks"><g id="Rectangle-2-Copy-4"><path class="cls-1" d="M15.77,0H4.69A4.69,4.69,0,0,0,0,4.69V15.77a4.69,4.69,0,0,0,4.69,4.69h4a8.21,8.21,0,0,1-1.81-2H4.69A2.7,2.7,0,0,1,2,15.77V4.69A2.7,2.7,0,0,1,4.69,2H15.77a2.7,2.7,0,0,1,2.69,2.69V6.88a8.21,8.21,0,0,1,2,1.81v-4A4.69,4.69,0,0,0,15.77,0Z"/></g></g></g></g></g><g id="settings-symbol-of-a-cross-of-tools"><path id="Shape" class="cls-1" d="M21.66,10.28l-3.84,3.85,1.93,1.93,3.85-3.85a1.37,1.37,0,1,0-1.94-1.93Z"/><path id="Shape-2" data-name="Shape" class="cls-1" d="M18.14,16.11l-2-2-.33-.33a.56.56,0,0,1-.15-.56,3.45,3.45,0,0,0-.26-2.37,3.3,3.3,0,0,0-.78-1,3.36,3.36,0,0,0-1.09-.65A3.43,3.43,0,0,0,11.85,9a.35.35,0,0,0-.19.6L13,11a1.46,1.46,0,0,1,0,2,1.38,1.38,0,0,1-1,.42,1.4,1.4,0,0,1-1-.43L9.64,11.66a.36.36,0,0,0-.25-.1.35.35,0,0,0-.35.3,2.45,2.45,0,0,0,0,.46,3.49,3.49,0,0,0,3.05,3.41h.32a3.26,3.26,0,0,0,.83-.11.6.6,0,0,1,.58.17l.32.31.56.57.84.83.61.62,4.57,4.56a1.4,1.4,0,0,0,1,.43,1.39,1.39,0,0,0,1-.43,1.41,1.41,0,0,0,0-2Z"/><path id="Shape-3" data-name="Shape" class="cls-1" d="M13.19,22l0-.27a.47.47,0,0,1,.14-.37l1.27-1.27a.09.09,0,0,1,.12,0,.66.66,0,0,0,.94,0l.42-.42-.52-.52-.41-.41-.42-.42-.52-.52-.42.43a.65.65,0,0,0,0,.93.09.09,0,0,1,0,.12l-1.28,1.27a.47.47,0,0,1-.37.14l-.27,0a.34.34,0,0,0-.29.12l-1.6,2a.34.34,0,0,0,0,.45l.34.34.33.33a.34.34,0,0,0,.45,0l2-1.6A.44.44,0,0,0,13.19,22Z"/></g></svg>