<svg id="Layer_1" data-name="Layer 1" xmlns="http://www.w3.org/2000/svg" viewBox="0 0 24 24"><defs><style>.cls-1{opacity:0.87;}.cls-2{fill:#fff;}</style></defs><title>ic-</title><g id="My-opportunity-plans-My-opportunity-plans-My-opportunity-plans-My-opportunity-plans-" class="cls-1"><g id="_02-A-Plan" data-name="02-A-Plan"><g id="Sidebar"><g id="ic_sidebar_browse" data-name="ic sidebar browse"><g id="ic_sidebar_mystories" data-name="ic sidebar mystories"><g id="Rectangle-2-Copy-4"><path class="cls-2" d="M18.47,4.47a4.3,4.3,0,0,0-1.84-1.84A6.39,6.39,0,0,0,13.23,2H5.87a6.39,6.39,0,0,0-3.4.63A4.3,4.3,0,0,0,.63,4.47,6.39,6.39,0,0,0,0,7.87V20.78A2.39,2.39,0,0,0,.24,22a1.9,1.9,0,0,0,.77.77A2.34,2.34,0,0,0,2.22,23h11a6.39,6.39,0,0,0,3.4-.63,4.3,4.3,0,0,0,1.84-1.84l0-.08a2.6,2.6,0,0,1-.64.34,5.1,5.1,0,0,1-1.93.21l-13.55.07,0-.07H2a1.1,1.1,0,0,1,0-.21V7.87a4.49,4.49,0,0,1,.39-2.45,2.44,2.44,0,0,1,1-1A4.49,4.49,0,0,1,5.87,4h7.36a4.49,4.49,0,0,1,2.45.39,2.44,2.44,0,0,1,1,1A4.22,4.22,0,0,1,17.1,7.7v2h2v-2A6.11,6.11,0,0,0,18.47,4.47Z"/></g><g id="Rectangle-2-Copy-3"><path class="cls-2" d="M19.43,7.7H10.25A7,7,0,0,0,7.64,8,4.41,4.41,0,0,0,6,9.11a7.08,7.08,0,0,0-1.37,2.24L2,17.08.57,20.25a1.84,1.84,0,0,0-.18.8A2,2,0,0,0,2.34,23h13.6a7,7,0,0,0,2.61-.33,4.41,4.41,0,0,0,1.68-1.08,7.2,7.2,0,0,0,1.37-2.24l2.2-4.87A4.8,4.8,0,0,0,19.43,7.7Zm2.55,6-2.2,4.88a5.16,5.16,0,0,1-1,1.67l-.28.25a2.6,2.6,0,0,1-.64.34,5.1,5.1,0,0,1-1.93.21l-13.55.07,0-.07,4-8.83a5.16,5.16,0,0,1,1-1.67,2.35,2.35,0,0,1,.92-.59,5.1,5.1,0,0,1,1.93-.21h9.18a2.79,2.79,0,0,1,2.55,4Z"/></g></g></g></g></g></g></svg>