<svg id="Layer_1" data-name="Layer 1" xmlns="http://www.w3.org/2000/svg" viewBox="0 0 24 24"><defs><style>.cls-1{fill:#fff;}</style></defs><title>ic-</title><g id="My-opportunity-plans-My-opportunity-plans-My-opportunity-plans-My-opportunity-plans-"><g id="_02-A-Plan" data-name="02-A-Plan"><g id="Sidebar"><g id="ic_sidebar_mystories-:-default" data-name="ic sidebar mystories-:-default"><g id="Group"><g id="ic_sidebar_mystories" data-name="ic sidebar mystories"><g id="Rectangle-2-Copy-2"><path class="cls-1" d="M4,21.4a1,1,0,0,1-.47-.12A5.79,5.79,0,0,1,1,18.83a8,8,0,0,1-.84-4V9.16a8,8,0,0,1,.84-4A5.79,5.79,0,0,1,3.48,2.72a1,1,0,1,1,.94,1.76A4,4,0,0,0,2.79,6.11a6.13,6.13,0,0,0-.6,3.05v5.7a6.18,6.18,0,0,0,.6,3,4,4,0,0,0,1.63,1.63A1,1,0,0,1,4,21.4Z"/></g><g id="Rectangle-2-Copy-3"><path class="cls-1" d="M19.21,22.12H10.87a4.6,4.6,0,0,1-4.6-4.6v-11a4.6,4.6,0,0,1,4.6-4.6h8.34a4.6,4.6,0,0,1,4.6,4.6v11A4.6,4.6,0,0,1,19.21,22.12ZM10.87,3.88a2.6,2.6,0,0,0-2.6,2.6v11a2.6,2.6,0,0,0,2.6,2.6h8.34a2.59,2.59,0,0,0,2.6-2.6v-11a2.59,2.59,0,0,0-2.6-2.6Z"/></g></g><g id="Oval"><circle class="cls-1" cx="11.32" cy="8.96" r="2.03"/></g><g id="Oval-Copy"><circle class="cls-1" cx="18.08" cy="14.37" r="2.03"/></g><g id="Line"><path class="cls-1" d="M19.44,10H15.38a1,1,0,0,1,0-2h4.06a1,1,0,0,1,0,2Z"/></g><g id="Line-Copy"><path class="cls-1" d="M14,15.59H10a1,1,0,0,1,0-2H14a1,1,0,0,1,0,2Z"/></g></g></g></g></g></g></svg>