<svg id="Layer_1" data-name="Layer 1" xmlns="http://www.w3.org/2000/svg" viewBox="0 0 24 24"><defs><style>.cls-1{fill:#252c37;}.cls-2{fill:#fff;}</style></defs><title>ic-</title><g id="My-opportunity-plans-My-opportunity-plans-My-opportunity-plans-My-opportunity-plans-"><g id="_02-A-Plan" data-name="02-A-Plan"><g id="Sidebar"><g id="ic_sidebar_winloss" data-name="ic sidebar winloss"><g id="Group-4"><g id="Group-3"><g id="Line-8"><path class="cls-1" d="M5.28,4.56l-3,3"/><path class="cls-2" d="M6.28,14.69V7l1.3,1.3a1,1,0,0,0,.7.29A1,1,0,0,0,9,8.27,1,1,0,0,0,9,6.85l-3-3a1,1,0,0,0-.32-.21.33.33,0,0,0-.14,0,1,1,0,0,0-1,.25l-3,3a1,1,0,0,0,.7,1.71A1,1,0,0,0,3,8.27L4.28,7v7.71a4,4,0,1,0,2,0Zm-1,5.87a2,2,0,1,1,2-2A2,2,0,0,1,5.28,20.56Z"/></g></g><g id="Group-3-Copy"><g id="Line-8-2" data-name="Line-8"><path class="cls-1" d="M18.72,19.44l3-3"/></g><g id="Line-8-Copy"><path class="cls-1" d="M18.72,19.44l-3-3"/><path class="cls-2" d="M21,15.73,19.72,17V9.31a4,4,0,1,0-2,0V17l-1.3-1.3a1,1,0,0,0-1.41,0,1,1,0,0,0,0,1.42l3,3a1.26,1.26,0,0,0,.32.21.33.33,0,0,0,.14,0,.69.69,0,0,0,.25,0,1,1,0,0,0,.7-.29l0,0,3-3a1,1,0,0,0,0-1.42A1,1,0,0,0,21,15.73ZM16.72,5.44a2,2,0,1,1,2,2A2,2,0,0,1,16.72,5.44Z"/></g></g></g></g></g></g></g></svg>