<?xml version="1.0" encoding="UTF-8"?>
<svg width="48px" height="48px" viewBox="0 0 48 48" version="1.1" xmlns="http://www.w3.org/2000/svg" xmlns:xlink="http://www.w3.org/1999/xlink">
    <title>DBC648BA-E9E7-4B26-84A2-69F718715836</title>
    <g id="Page-1" stroke="none" stroke-width="1" fill="none" fill-rule="evenodd">
        <g id="icons" transform="translate(-24.000000, -29.000000)">
            <g id="avatar" transform="translate(24.000000, 29.000000)">
                <rect id="Rectangle" fill="#4AC385" x="0" y="0" width="48" height="48" rx="24"></rect>
                <g id="store-24px" transform="translate(12.000000, 12.000000)">
                    <polygon id="Path" points="0 0 24 0 24 24 0 24"></polygon>
                    <path d="M20,4 L4,4 L4,6 L20,6 L20,4 Z M21,14 L21,12 L20,7 L4,7 L3,12 L3,14 L4,14 L4,20 L14,20 L14,14 L18,14 L18,20 L20,20 L20,14 L21,14 Z M12,18 L6,18 L6,14 L12,14 L12,18 Z" id="Shape" fill="#FFFFFF" fill-rule="nonzero"></path>
                </g>
            </g>
        </g>
    </g>
</svg>