<svg width="35" height="38" viewBox="0 0 35 38" fill="none" xmlns="http://www.w3.org/2000/svg">
<path d="M11.8665 17.133H8.13317V20.8663H11.8665V17.133ZM19.3332 17.133H15.5998V20.8663H19.3332V17.133ZM26.7998 17.133H23.0665V20.8663H26.7998V17.133ZM30.5332 4.06634H28.6665V0.333008H24.9332V4.06634H9.99984V0.333008H6.2665V4.06634H4.39984C2.32784 4.06634 0.685171 5.74634 0.685171 7.79967L0.666504 33.933C0.666504 35.9863 2.32784 37.6663 4.39984 37.6663H30.5332C32.5865 37.6663 34.2665 35.9863 34.2665 33.933V7.79967C34.2665 5.74634 32.5865 4.06634 30.5332 4.06634ZM30.5332 33.933H4.39984V13.3997H30.5332V33.933Z" fill="white"/>
</svg>
