<?xml version="1.0" encoding="UTF-8"?>
<svg width="32px" height="32px" viewBox="0 0 32 32" version="1.1" xmlns="http://www.w3.org/2000/svg" xmlns:xlink="http://www.w3.org/1999/xlink">
    <title>5891823A-E637-4DB4-8B19-7D06F7B10C3D</title>
    <g id="Page-1" stroke="none" stroke-width="1" fill="none" fill-rule="evenodd">
        <g id="Tribyl-icons" transform="translate(-120.000000, -80.000000)">
            <g id="Group-3" transform="translate(120.000000, 80.000000)">
                <rect id="Rectangle" fill="#FFECF2" x="0" y="0" width="32" height="32" rx="16"></rect>
                <g id="description-24px-(1)" transform="translate(4.000000, 4.000000)">
                    <polygon id="Path" points="0 0 24 0 24 24 0 24"></polygon>
                    <path d="M14,2 L6,2 C4.9,2 4.01,2.9 4.01,4 L4,20 C4,21.1 4.89,22 5.99,22 L18,22 C19.1,22 20,21.1 20,20 L20,8 L14,2 Z M16,18 L8,18 L8,16 L16,16 L16,18 Z M16,14 L8,14 L8,12 L16,12 L16,14 Z M13,9 L13,3.5 L18.5,9 L13,9 Z" id="Shape" fill="#FF1A81" fill-rule="nonzero"></path>
                </g>
            </g>
        </g>
    </g>
</svg>