<svg width="16" height="17" viewBox="0 0 16 17" fill="none" xmlns="http://www.w3.org/2000/svg">
<path d="M9.77434 10.9838L3.82833 12.173L5.01753 6.22613L9.54054 1.70312H1.68204C0.754396 1.70312 0 2.45836 0 3.38517V15.1595C0 16.0871 0.754396 16.8415 1.68204 16.8415H13.4563C14.384 16.8415 15.1384 16.0871 15.1384 15.1595V5.61892L9.77434 10.9838Z" fill="#5F6C72"/>
<path d="M6.56726 7.05566L8.94566 9.43323L5.97266 10.0278L6.56726 7.05566Z" fill="#5F6C72"/>
<path d="M15.4846 2.89191C15.6452 2.73675 15.7734 2.55115 15.8615 2.34593C15.9497 2.14072 15.9961 1.92 15.998 1.69666C16 1.47332 15.9574 1.25183 15.8728 1.04511C15.7882 0.838393 15.6633 0.65059 15.5054 0.492658C15.3475 0.334727 15.1597 0.20983 14.953 0.125256C14.7462 0.0406813 14.5248 -0.00187726 14.3014 6.35084e-05C14.0781 0.00200428 13.8574 0.0484053 13.6521 0.136559C13.4469 0.224714 13.2613 0.352855 13.1062 0.513507L7.75391 5.86576L10.1332 8.24501L15.4846 2.89191Z" fill="#5F6C72"/>
</svg>
