<?xml version="1.0" encoding="UTF-8"?>
<svg width="32px" height="32px" viewBox="0 0 32 32" version="1.1" xmlns="http://www.w3.org/2000/svg" xmlns:xlink="http://www.w3.org/1999/xlink">
    <title>7FBFF833-AF31-4613-9E4F-CD9BF93D8521</title>
    <g id="Page-1" stroke="none" stroke-width="1" fill="none" fill-rule="evenodd">
        <g id="Tribyl-icons" transform="translate(-24.000000, -80.000000)">
            <g id="Group-3" transform="translate(24.000000, 80.000000)">
                <rect id="Rectangle" fill="#E6F3FF" x="0" y="0" width="32" height="32" rx="16"></rect>
                <g id="email-24px" transform="translate(4.000000, 4.000000)">
                    <polygon id="Path" points="0 0 24 0 24 24 0 24"></polygon>
                    <path d="M20,4 L4,4 C2.9,4 2.01,4.9 2.01,6 L2,18 C2,19.1 2.9,20 4,20 L20,20 C21.1,20 22,19.1 22,18 L22,6 C22,4.9 21.1,4 20,4 Z M20,8 L12,13 L4,8 L4,6 L12,11 L20,6 L20,8 Z" id="Shape" fill="#0080FF" fill-rule="nonzero"></path>
                </g>
            </g>
        </g>
    </g>
</svg>