<svg width="16" height="16" viewBox="0 0 16 16" fill="none" xmlns="http://www.w3.org/2000/svg">
<path d="M15.9998 0C14.3817 0.11125 3.01359 1.19375 2.21891 8.98781C2.12234 9.82094 2.06766 10.6578 2.03172 11.4953L7.62141 5.91125C7.81672 5.71594 8.13391 5.71594 8.32922 5.91125C8.52453 6.10656 8.52453 6.42312 8.32922 6.61844L0.219844 14.7197C-0.0732813 15.0125 -0.0732813 15.4875 0.219844 15.7803C0.512969 16.0731 0.988281 16.0731 1.28172 15.7803L3.06703 13.9969C4.38234 13.9925 5.69672 13.9178 7.00328 13.7669C8.67453 13.5969 10.0352 12.9397 11.1464 12H7.99172L12.5789 10.4725C12.9305 10.0072 13.2467 9.51281 13.5305 9H10.9948L14.3242 7.33719C15.6339 4.15187 15.9433 0.820625 15.9998 0Z" fill="#5F6C72"/>
</svg>
