<svg width="18" height="18" viewBox="0 0 18 18" fill="none" xmlns="http://www.w3.org/2000/svg">
<path d="M17.4998 0.912354C15.7806 1.03037 3.70194 2.17871 2.85759 10.4468C2.75499 11.3306 2.69689 12.2184 2.6587 13.1068L8.59774 7.18313C8.80526 6.97594 9.14228 6.97594 9.3498 7.18313C9.55732 7.39032 9.55732 7.72613 9.3498 7.93333L0.733584 16.5273C0.422139 16.8379 0.422139 17.3418 0.733584 17.6524C1.04503 17.963 1.55005 17.963 1.86183 17.6524L3.75872 15.7605C5.15624 15.7559 6.55276 15.6767 7.94099 15.5165C9.71669 15.3362 11.1624 14.639 12.3431 13.6422H8.9912L13.8651 12.0218C14.2386 11.5282 14.5746 11.0037 14.8761 10.4597H12.182L15.7195 8.69579C17.111 5.31675 17.4397 1.78289 17.4998 0.912354Z" fill="#0080FF"/>
</svg>
