<svg width="28" height="38" viewBox="0 0 28 38" fill="none" xmlns="http://www.w3.org/2000/svg">
<path d="M26.8335 15.4992H15.4667L18.6377 1.76175C18.759 1.23325 18.5023 0.691916 18.0158 0.45275C17.5293 0.212416 16.9437 0.339583 16.5995 0.75725L0.266179 20.5906C-0.0208207 20.9394 -0.0803207 21.4212 0.112179 21.8296C0.304679 22.2379 0.715346 22.4992 1.16685 22.4992H12.5337L9.36268 36.2367C9.24135 36.7652 9.49801 37.3066 9.98451 37.5457C10.149 37.6262 10.3252 37.6659 10.5002 37.6659C10.8408 37.6659 11.1745 37.5177 11.4008 37.2412L27.7342 17.4079C28.0212 17.0591 28.0807 16.5772 27.8882 16.1689C27.6957 15.7606 27.285 15.4992 26.8335 15.4992Z" fill="white"/>
</svg>
