<?xml version="1.0" encoding="UTF-8"?>
<svg width="48px" height="48px" viewBox="0 0 48 48" version="1.1" xmlns="http://www.w3.org/2000/svg" xmlns:xlink="http://www.w3.org/1999/xlink">
    <title>9AE2EBD7-E629-406A-97FD-8434734AB5C3</title>
    <g id="Page-1" stroke="none" stroke-width="1" fill="none" fill-rule="evenodd">
        <g id="icons" transform="translate(-388.000000, -29.000000)">
            <g id="avatar-copy-4" transform="translate(388.000000, 29.000000)">
                <rect id="Rectangle" fill="#FEB139" x="0" y="0" width="48" height="48" rx="24"></rect>
                <g id="theaters-24px" transform="translate(12.000000, 12.000000)">
                    <polygon id="Path" points="0 0 24 0 24 24 0 24"></polygon>
                    <path d="M18,3 L18,5 L16,5 L16,3 L8,3 L8,5 L6,5 L6,3 L4,3 L4,21 L6,21 L6,19 L8,19 L8,21 L16,21 L16,19 L18,19 L18,21 L20,21 L20,3 L18,3 Z M8,17 L6,17 L6,15 L8,15 L8,17 Z M8,13 L6,13 L6,11 L8,11 L8,13 Z M8,9 L6,9 L6,7 L8,7 L8,9 Z M18,17 L16,17 L16,15 L18,15 L18,17 Z M18,13 L16,13 L16,11 L18,11 L18,13 Z M18,9 L16,9 L16,7 L18,7 L18,9 Z" id="Shape" fill="#FFFFFF" fill-rule="nonzero"></path>
                </g>
            </g>
        </g>
    </g>
</svg>