<?xml version="1.0" encoding="UTF-8"?>
<svg width="593px" height="597px" viewBox="0 0 593 597" version="1.1" xmlns="http://www.w3.org/2000/svg" xmlns:xlink="http://www.w3.org/1999/xlink">
    <title>04338ADF-0610-4BF0-BA38-F46B71D4246B</title>
    <defs>
        <linearGradient x1="100%" y1="27.8933658%" x2="17.3567975%" y2="74.7213564%" id="linearGradient-1">
            <stop stop-color="#F5F9FD" offset="0%"></stop>
            <stop stop-color="#E7F0FB" offset="100%"></stop>
        </linearGradient>
        <rect id="path-2" x="0" y="0" width="268.164" height="202.176" rx="11.0226355"></rect>
        <filter x="-2.6%" y="-2.5%" width="105.2%" height="106.9%" filterUnits="objectBoundingBox" id="filter-3">
            <feOffset dx="0" dy="2" in="SourceAlpha" result="shadowOffsetOuter1"></feOffset>
            <feGaussianBlur stdDeviation="2" in="shadowOffsetOuter1" result="shadowBlurOuter1"></feGaussianBlur>
            <feColorMatrix values="0 0 0 0 0   0 0 0 0 0   0 0 0 0 0  0 0 0 0.0975964953 0" type="matrix" in="shadowBlurOuter1"></feColorMatrix>
        </filter>
        <linearGradient x1="50%" y1="0%" x2="50%" y2="100%" id="linearGradient-4">
            <stop stop-color="#F8E240" offset="0%"></stop>
            <stop stop-color="#FFCF00" offset="100%"></stop>
        </linearGradient>
        <linearGradient x1="50%" y1="0%" x2="50%" y2="100%" id="linearGradient-5">
            <stop stop-color="#FFE500" offset="0%"></stop>
            <stop stop-color="#FFC700" offset="100%"></stop>
        </linearGradient>
        <linearGradient x1="42.0422342%" y1="25.4402717%" x2="43.866967%" y2="93.1833157%" id="linearGradient-6">
            <stop stop-color="#FFD600" offset="0%"></stop>
            <stop stop-color="#FFC700" offset="100%"></stop>
        </linearGradient>
    </defs>
    <g id="Login-flow" stroke="none" stroke-width="1" fill="none" fill-rule="evenodd">
        <g id="icons-and-component" transform="translate(-736.000000, -514.000000)">
            <g id="Group" transform="translate(736.000000, 516.000000)">
                <g id="chart-browser,-chart,-graph,-browser,-webpage" transform="translate(181.400000, 81.432000)">
                    <rect id="Rectangle" fill="url(#linearGradient-1)" fill-rule="nonzero" x="0" y="0" width="268.164" height="202.176" rx="11.0226355"></rect>
                    <path d="M257.141371,-1.2470025e-15 L11.0226285,-1.2470025e-15 C8.09924509,-1.2470025e-15 5.29559532,1.16130685 3.22845109,3.22845109 C1.16130685,5.29559532 0,8.09924509 0,11.0226285 L0,21.6598309 L268.164,21.6598309 L268.164,11.0226285 C268.164,8.09924509 267.002693,5.29559532 264.935549,3.22845109 C262.868405,1.16130685 260.064755,-1.2470025e-15 257.141371,-1.2470025e-15 Z" id="Path" fill="#091F42" fill-rule="nonzero"></path>
                    <circle id="Oval" fill="#FFFFFF" fill-rule="nonzero" cx="14.391" cy="10.8299155" r="2.19375"></circle>
                    <circle id="Oval" fill="#FFFFFF" fill-rule="nonzero" cx="25.00875" cy="10.8299155" r="2.19375"></circle>
                    <circle id="Oval" fill="#FFFFFF" fill-rule="nonzero" cx="35.6265" cy="10.8299155" r="2.19375"></circle>
                    <line x1="161.109" y1="55.7014501" x2="226.395" y2="55.7014501" id="Path" stroke="#D7E8F7" stroke-width="2.457"></line>
                    <line x1="161.109" y1="65.8541146" x2="226.395" y2="65.8541146" id="Path" stroke="#D7E8F7" stroke-width="2.457"></line>
                    <line x1="161.109" y1="76.006779" x2="226.395" y2="76.006779" id="Path" stroke="#D7E8F7" stroke-width="2.457"></line>
                    <line x1="161.109" y1="86.1594435" x2="193.752" y2="86.1594435" id="Path" stroke="#D7E8F7" stroke-width="2.457"></line>
                    <line x1="161.109" y1="99.3604517" x2="226.395" y2="99.3604517" id="Path" stroke="#D7E8F7" stroke-width="2.457"></line>
                    <line x1="161.109" y1="109.513116" x2="226.395" y2="109.513116" id="Path" stroke="#D7E8F7" stroke-width="2.457"></line>
                    <line x1="161.109" y1="119.665781" x2="226.395" y2="119.665781" id="Path" stroke="#D7E8F7" stroke-width="2.457"></line>
                    <line x1="161.109" y1="153.172114" x2="226.395" y2="153.172114" id="Path" stroke="#D7E8F7" stroke-width="2.457"></line>
                    <line x1="161.109" y1="163.324779" x2="226.395" y2="163.324779" id="Path" stroke="#D7E8F7" stroke-width="2.457"></line>
                    <line x1="161.109" y1="173.477443" x2="193.752" y2="173.477443" id="Path" stroke="#D7E8F7" stroke-width="2.457"></line>
                    <circle id="Oval" fill="#D8EAF5" fill-rule="nonzero" cx="82.0139475" cy="105.701425" r="48.5811975"></circle>
                    <path d="M130.595207,105.701425 C130.596493,102.366112 130.255774,99.0394553 129.578358,95.7736599 L82.013958,105.701425 L116.366054,140.053517 C125.491005,130.952276 130.611925,118.589289 130.595207,105.701425 L130.595207,105.701425 Z" id="Path" fill="#86D2B2" fill-rule="nonzero"></path>
                    <path d="M82.013958,47.8933814 L82.013958,105.701425 L139.821987,105.701425 C139.821987,90.3697791 133.731524,75.6660759 122.890415,64.824964 C112.049305,53.9838522 97.3456036,47.8933814 82.013958,47.8933814 Z" id="Path" fill="#5EC498" fill-rule="nonzero"></path>
                    <line x1="82.0139475" y1="105.701425" x2="139.821987" y2="105.701425" id="Path" stroke="#95B5E8" stroke-width="0.702"></line>
                </g>
                <g id="rating-browser,-rating,-rate,-review,-browser,-webpage" transform="translate(320.378000, 0.000000)" fill-rule="nonzero">
                    <g id="Rectangle">
                        <use fill="black" fill-opacity="1" filter="url(#filter-3)" xlink:href="#path-2"></use>
                        <use fill="url(#linearGradient-1)" xlink:href="#path-2"></use>
                    </g>
                    <path d="M257.141371,-1.2470025e-15 L11.0226285,-1.2470025e-15 C8.09924509,-1.2470025e-15 5.29559532,1.16130685 3.22845109,3.22845109 C1.16130685,5.29559532 0,8.09924509 0,11.0226285 L0,21.6598309 L268.164,21.6598309 L268.164,11.0226285 C268.164,8.09924509 267.002693,5.29559532 264.935549,3.22845109 C262.868405,1.16130685 260.064755,-1.2470025e-15 257.141371,-1.2470025e-15 Z" id="Path" fill="#091F42"></path>
                    <circle id="Oval" fill="#FFFFFF" cx="14.391" cy="10.8299155" r="2.19375"></circle>
                    <circle id="Oval" fill="#FFFFFF" cx="25.00875" cy="10.8299155" r="2.19375"></circle>
                    <circle id="Oval" fill="#FFFFFF" cx="35.6265" cy="10.8299155" r="2.19375"></circle>
                    <path d="M47.8739149,87.2944933 L51.3172249,94.271408 C51.565403,94.774275 52.0451349,95.1228217 52.6000808,95.2034604 L60.2995641,96.3222589 C60.9413627,96.4155197 61.4745615,96.8650548 61.674971,97.4818522 C61.8753805,98.0986495 61.7082436,98.7757374 61.2438349,99.2284266 L55.6724364,104.659197 C55.2708778,105.050626 55.0876409,105.614584 55.1824404,106.167286 L56.497669,113.835657 C56.6073022,114.474863 56.3445368,115.120882 55.8198563,115.502084 C55.2951758,115.883286 54.5995768,115.933559 54.0255339,115.631766 L47.1389139,112.011253 C46.6425553,111.750302 46.0495738,111.750302 45.5532152,112.011253 L38.6665952,115.631766 C38.0925526,115.933557 37.396955,115.883283 36.8722758,115.502081 C36.3475965,115.120879 36.0848314,114.474862 36.1944636,113.835657 L37.5096922,106.167286 C37.6044918,105.614584 37.4212549,105.050626 37.0196962,104.659197 L31.4482662,99.2284266 C30.9838547,98.7757385 30.816716,98.0986493 31.0171259,97.4818508 C31.2175358,96.8650523 31.7507368,96.4155172 32.3925369,96.3222589 L40.0920203,95.2034604 C40.6469662,95.1228217 41.126698,94.774275 41.3748761,94.271408 L44.8181861,87.2944933 C45.1052064,86.7129215 45.6975089,86.3447296 46.3460505,86.3447296 C46.9945922,86.3447296 47.5868947,86.7129215 47.8739149,87.2944933 L47.8739149,87.2944933 Z" id="Path" fill="#FF9946"></path>
                    <path d="M91.7418879,87.2944933 L95.1851979,94.271408 C95.433376,94.774275 95.9131079,95.1228217 96.4680538,95.2034604 L104.167537,96.3222589 C104.809337,96.4155172 105.342538,96.8650523 105.542948,97.4818508 C105.743358,98.0986493 105.576219,98.7757385 105.111808,99.2284266 L99.5404094,104.659197 C99.1388508,105.050626 98.9556139,105.614584 99.0504134,106.167286 L100.365642,113.835657 C100.475274,114.474862 100.212509,115.120879 99.6878299,115.502081 C99.1631506,115.883283 98.467553,115.933557 97.8935104,115.631766 L91.0068904,112.011253 C90.5105318,111.750302 89.9175503,111.750302 89.4211917,112.011253 L82.5345717,115.631766 C81.9605288,115.933559 81.2649298,115.883286 80.7402493,115.502084 C80.2155689,115.120882 79.9528034,114.474863 80.0624366,113.835657 L81.3776652,106.167286 C81.4724648,105.614584 81.2892278,105.050626 80.8876692,104.659197 L75.3162708,99.2284266 C74.851862,98.7757374 74.6847251,98.0986495 74.8851346,97.4818522 C75.0855442,96.8650548 75.618743,96.4155197 76.2605415,96.3222589 L83.9600248,95.2034604 C84.5149707,95.1228217 84.9947026,94.774275 85.2428807,94.271408 L88.6861907,87.2944933 C88.9732175,86.7129391 89.5655105,86.3447616 90.2140393,86.3447616 C90.8625681,86.3447616 91.4548611,86.7129391 91.7418879,87.2944933 Z" id="Path" fill="#FF9946"></path>
                    <path d="M135.609861,87.2944933 L139.053171,94.271408 C139.301351,94.7742751 139.781084,95.1228216 140.33603,95.2034604 L148.035514,96.3222589 C148.677312,96.4155197 149.210511,96.8650548 149.41092,97.4818522 C149.61133,98.0986495 149.444193,98.7757374 148.979784,99.2284266 L143.408386,104.659197 C143.006828,105.050626 142.823591,105.614585 142.91839,106.167286 L144.233618,113.835657 C144.343251,114.474862 144.080486,115.120879 143.555806,115.502081 C143.031127,115.883283 142.33553,115.933557 141.761487,115.631766 L134.874867,112.011253 C134.378508,111.750302 133.785527,111.750302 133.289168,112.011253 L126.402548,115.631766 C125.828506,115.933557 125.132908,115.883283 124.608229,115.502081 C124.083549,115.120879 123.820784,114.474862 123.930417,113.835657 L125.245645,106.167286 C125.340444,105.614585 125.157207,105.050626 124.755649,104.659197 L119.184251,99.2284266 C118.719842,98.7757374 118.552705,98.0986495 118.753115,97.4818522 C118.953524,96.8650548 119.486723,96.4155197 120.128522,96.3222589 L127.828005,95.2034604 C128.382952,95.1228216 128.862684,94.7742751 129.110864,94.271408 L132.554174,87.2944933 C132.841203,86.7129449 133.433493,86.3447723 134.082018,86.3447723 C134.730542,86.3447723 135.322832,86.7129449 135.609861,87.2944933 Z" id="Path" fill="#FF9946"></path>
                    <path d="M179.477837,87.2944933 L182.921147,94.271408 C183.169325,94.774275 183.649057,95.1228217 184.204003,95.2034604 L191.903487,96.3222589 C192.545285,96.4155197 193.078484,96.8650548 193.278893,97.4818522 C193.479303,98.0986495 193.312166,98.7757374 192.847757,99.2284266 L187.276359,104.659197 C186.8748,105.050626 186.691563,105.614584 186.786363,106.167286 L188.101591,113.835657 C188.211225,114.474863 187.948459,115.120882 187.423779,115.502084 C186.899098,115.883286 186.203499,115.933559 185.629456,115.631766 L178.742836,112.011253 C178.246478,111.750302 177.653496,111.750302 177.157138,112.011253 L170.270518,115.631766 C169.696475,115.933557 169.000877,115.883283 168.476198,115.502081 C167.951519,115.120879 167.688754,114.474862 167.798386,113.835657 L169.113615,106.167286 C169.208414,105.614584 169.025177,105.050626 168.623619,104.659197 L163.05222,99.2284266 C162.587809,98.7757385 162.42067,98.0986493 162.62108,97.4818508 C162.82149,96.8650523 163.354691,96.4155172 163.996491,96.3222589 L171.695974,95.2034604 C172.25092,95.1228217 172.730652,94.774275 172.97883,94.271408 L176.42214,87.2944933 C176.709167,86.7129391 177.30146,86.3447616 177.949989,86.3447616 C178.598518,86.3447616 179.190811,86.7129391 179.477837,87.2944933 Z" id="Path" fill="#FF9946"></path>
                    <path d="M223.34581,87.2944933 L226.78912,94.271408 C227.037298,94.774275 227.51703,95.1228217 228.071976,95.2034604 L235.77146,96.3222589 C236.41326,96.4155172 236.946461,96.8650523 237.146871,97.4818508 C237.347281,98.0986493 237.180142,98.7757385 236.71573,99.2284266 L231.144332,104.659197 C230.742773,105.050626 230.559536,105.614584 230.654336,106.167286 L231.969564,113.835657 C232.079197,114.474862 231.816432,115.120879 231.291752,115.502081 C230.767073,115.883283 230.071475,115.933557 229.497433,115.631766 L222.610813,112.011253 C222.114454,111.750302 221.521473,111.750302 221.025114,112.011253 L214.138494,115.631766 C213.564451,115.933559 212.868852,115.883286 212.344172,115.502084 C211.819491,115.120882 211.556726,114.474863 211.666359,113.835657 L212.981588,106.167286 C213.076387,105.614584 212.89315,105.050626 212.491592,104.659197 L206.920193,99.2284266 C206.455784,98.7757374 206.288648,98.0986495 206.489057,97.4818522 C206.689467,96.8650548 207.222665,96.4155197 207.864464,96.3222589 L215.563947,95.2034604 C216.118893,95.1228217 216.598625,94.774275 216.846803,94.271408 L220.290113,87.2944933 C220.57714,86.7129391 221.169433,86.3447616 221.817962,86.3447616 C222.466491,86.3447616 223.058784,86.7129391 223.34581,87.2944933 L223.34581,87.2944933 Z" id="Path" fill="#D8EAF5"></path>
                </g>
                <g id="increase,-arrow,-chart,-man,-male" transform="translate(148.315000, 311.699000) scale(-1, 1) translate(-148.315000, -311.699000) translate(0.315000, 29.199000)">
                    <path d="M26.676,138.423183 C26.676,138.065023 7.37238793,120.634562 1.49737243,120.395791 C-4.37764306,120.15702 8.93106727,135.31913 8.93106727,135.31913 C8.93106727,135.31913 2.81625772,163.255627 25.7168166,167.076" id="Path" fill="#FBD3AE" fill-rule="nonzero"></path>
                    <path d="M35.451,145.002654 C35.451,145.002654 32.4040826,128.638647 23.9802521,128.818471 C15.5564215,128.998296 10.1795084,133.85355 13.7641172,135.831617 C16.1496253,137.016624 18.8534108,137.394894 21.4710259,136.909843 C21.4710259,136.909843 14.4810389,152.375448 25.0556347,157.95" id="Path" fill="#FBD3AE" fill-rule="nonzero"></path>
                    <path d="M150.93,81.4838883 C150.93,81.4838883 140.921425,77.1524471 124.052372,96.8940081 C107.183318,116.635569 86.0183698,165.06128 86.0183698,165.06128 C86.0183698,165.06128 53.2681862,147.804671 34.3319772,141.385234 C34.3319772,141.385234 21.411,152.504646 21.411,168.645727 C21.411,168.645727 65.3110107,223.89149 93.6653774,221.021964 C122.019744,218.152439 135.442077,184.290064 135.442077,184.290064" id="Path" fill="url(#linearGradient-4)" fill-rule="nonzero"></path>
                    <path d="M169.3575,45.279 L169.3575,45.279 C178.177764,45.279 185.328,52.4150276 185.328,61.2177638 L185.328,96.876 L153.387,96.876 L153.387,61.217771 C153.387,56.9905468 155.069599,52.936458 158.064649,49.9473584 C161.059699,46.9582588 165.121859,45.279 169.3575,45.279 Z" id="Path" fill="#FBD3AE" fill-rule="nonzero" transform="translate(169.357500, 71.077500) rotate(180.000000) translate(-169.357500, -71.077500) "></path>
                    <path d="M153.387,74.763 C166.856428,72.8278355 176.904,65.3021981 176.904,56.3066631 C176.904,52.191363 174.795089,48.3857433 171.224437,45.279 L153.387,45.279 L153.387,74.763 Z" id="Path" fill="#D1AB8B" fill-rule="nonzero"></path>
                    <path d="M142.681489,37.557 L142.681489,37.557 C144.716941,37.557 146.367,39.1726361 146.367,41.1656153 L146.367,44.0290411 C146.367,44.8260057 146.04366,45.5903288 145.468111,46.1538679 C144.892563,46.717407 144.111951,47.034 143.298003,47.034 L143.298003,47.034 C142.15704,47.034 141.062809,46.5902122 140.256027,45.8002647 C139.449245,45.0103173 138.996,43.9389187 138.996,42.8217643 L138.996,41.1656081 C138.996,39.1726289 140.646059,37.557 142.681511,37.557 L142.681489,37.557 Z" id="Path" fill="#FBD3AE" fill-rule="nonzero"></path>
                    <path d="M146.165404,17.710951 C143.032507,22.9423285 141.678187,29.0432551 142.304243,35.1046636 C142.581026,38.519316 142.63083,41.948499 142.453331,45.3697145 C142.066361,54.0535456 145.695994,62.165967 153.097481,66.0499889 C156.074767,67.6123582 162.495452,68.4499581 167.313995,66.9749287 C176.057661,64.2983677 184.908763,58.5223361 185.157939,44.2845596 C185.221281,40.3537327 185.774348,36.446006 186.804418,32.6512798 C187.703839,29.3507919 187.962486,24.554615 185.352248,18.6274489 C179.594929,5.55394792 156.871603,0.414520416 146.165404,17.710951 Z" id="Path" fill="#FBD3AE" fill-rule="nonzero"></path>
                    <path d="M142.630234,37.8326849 C142.630234,37.8326849 139.817873,22.5858976 152.063844,21.6734039 C152.063844,21.6734039 156.724638,32.4408335 167.051484,30.9808422 L165.154128,26.6008683 C165.154128,26.6008683 171.072562,32.9447667 180.028591,32.7384273 L183.044396,44.577 L185.072601,43.8658837 C185.072601,43.8658837 193.984907,31.3214356 190.477292,17.3238457 C187.337061,4.79226027 162.368692,-3.72435446 149.615831,1.62894459 C136.862971,6.98224365 132.191322,25.7350707 142.630234,37.8326849 Z" id="Path" fill="#000000" fill-rule="nonzero"></path>
                    <path d="M149.877,1.755 C136.862431,7.1007963 132.094892,25.8273409 142.748022,37.908" id="Path" stroke="#5A3C2A" stroke-width="0.702"></path>
                    <ellipse id="Oval" fill="#000000" fill-rule="nonzero" opacity="0" cx="170.0595" cy="43.6995" rx="1.2285" ry="1.5795"></ellipse>
                    <ellipse id="Oval" fill="#000000" fill-rule="nonzero" opacity="0" cx="149.7015" cy="43.6995" rx="1.2285" ry="1.5795"></ellipse>
                    <path d="M160.407,49.14 L159.130128,49.14 C158.672212,49.14 158.301,48.7640047 158.301,48.3001974 L158.301,35.451" id="Path" stroke="#000000" stroke-width="0.702" opacity="0"></path>
                    <path d="M155.142,52.299 C157.662078,54.639 161.747922,54.639 164.268,52.299" id="Path" stroke="#000000" stroke-width="0.702" opacity="0"></path>
                    <path d="M174.447,33.696 C173.236817,32.5722924 171.595457,31.941 169.884,31.941 C168.172543,31.941 166.531183,32.5722924 165.321,33.696" id="Path" stroke="#000000" stroke-width="0.702" opacity="0"></path>
                    <path d="M154.44,33.696 C153.229817,32.5722924 151.588457,31.941 149.877,31.941 C148.165543,31.941 146.524183,32.5722924 145.314,33.696" id="Path" stroke="#000000" stroke-width="0.702" opacity="0"></path>
                    <path d="M148.889454,22.4985805 C148.84638,22.4937016 148.801789,22.4928031 148.758546,22.4884858 C148.825292,22.4533156 148.872403,22.4294195 148.872403,22.4294195 C148.877282,22.4528663 148.88447,22.4751337 148.889454,22.4985805 Z" id="Path" fill="#5A3C2A" fill-rule="nonzero"></path>
                    <path d="M185.067012,37.206 L185.067012,37.206 C186.761967,37.206 188.136,38.5513659 188.136,40.2109589 L188.136,43.0743919 C188.136,45.0673711 186.485945,46.683 184.4505,46.683 L184.4505,46.683 C182.415055,46.683 180.765,45.0673711 180.765,43.0743919 L180.765,41.4182429 C180.765,39.0918893 182.691066,37.206 185.06699,37.206 L185.067012,37.206 Z" id="Path" fill="#FBD3AE" fill-rule="nonzero" transform="translate(184.450500, 41.944500) rotate(180.000000) translate(-184.450500, -41.944500) "></path>
                    <path d="M191.740985,77.8982802 L189.880579,65.637 L166.442053,72.0430072 C165.187881,72.3857807 164.186013,73.327087 163.768015,74.5554027 L162.798959,77.4030181 C162.139727,79.3402149 160.316684,80.6433342 158.265809,80.6433329 C155.62191,80.6433329 153.478606,78.5053681 153.478606,75.8680548 L153.478606,71.0215027 L150.978035,71.5127927 C149.141851,71.8735478 147.817998,73.4795736 147.818,75.3463724 L147.818,79.3623351 C147.818,79.3623351 104.204269,123.649321 127.687265,198.315 L200.337854,198.315 C200.337854,198.315 230.003378,90.1790262 191.740985,77.8982802 Z" id="Path" fill="url(#linearGradient-5)" fill-rule="nonzero"></path>
                    <path d="M153.125626,92.8459393 C153.125626,92.8459393 135.976292,123.799051 135.486,157.700767 L145.781941,166.725 L158.039,157.700796 C158.039,157.700796 153.739531,109.294456 158.284142,93.555813 L159.437319,92.4084871 C160.295102,91.5550588 160.771076,90.3937554 160.757727,89.1868972 C160.744377,87.9800391 160.242829,86.8294391 159.366376,85.995 L159.366376,85.995 C157.683143,86.5181176 155.879598,86.5181176 154.196364,85.995 L154.196364,85.995 C152.333556,87.6078892 151.811961,90.2746011 152.930905,92.4648017 L153.125626,92.8459393 Z" id="Path" fill="#F16767" fill-rule="nonzero"></path>
                    <polyline id="Path" stroke="#FFFFFF" stroke-width="0.702" points="135.486 157.599 145.740805 166.725 157.95 157.599"></polyline>
                    <path d="M128.466,303.372633 C128.466,303.372633 138.934423,442.546523 247.788599,538.439217 L253.644925,555.282 L295.542,527.254268 L224.3633,342.916545 C224.3633,342.916545 214.855814,238.196353 202.406607,207.441" id="Path" fill="#051026" fill-rule="nonzero"></path>
                    <path d="M128.466,303.264 C128.466,303.264 138.93595,442.499119 247.806,538.434" id="Path" stroke="#2F3676" stroke-width="0.702"></path>
                    <path d="M127.868664,198.315 C127.868664,198.315 83.2525377,352.942341 140.302652,550.073931 L131.525704,564.057 L192.96426,564.057 L191.709968,358.072165 C191.709968,358.072165 223.683553,284.789041 200.278385,198.315" id="Path" fill="#0A1B45" fill-rule="nonzero"></path>
                    <path d="M257.895333,166.490752 C240.332146,71.5469903 191.510267,78.015002 191.510267,78.015002 L185.235662,81.0028519 L182.52,93.0253944 L188.008493,143.303948 C188.008493,143.303948 208.089573,164.294136 211.016772,191.142028 C213.943971,217.989748 185.709554,229.309892 185.709554,229.309892 C184.883691,243.221955 196.424184,262.899 196.424184,262.899 C196.424184,262.899 275.45854,261.434522 257.895333,166.490752 Z" id="Path" fill="url(#linearGradient-6)" fill-rule="nonzero"></path>
                </g>
                <g id="web-browser,-browser,-website,-webpage,-user-interface" transform="translate(318.353000, 229.932000)">
                    <rect id="Rectangle" fill="url(#linearGradient-1)" fill-rule="nonzero" x="0" y="0" width="268.164" height="202.176" rx="11.0226355"></rect>
                    <path d="M257.141371,0 L11.0226285,0 C8.09924509,0 5.29559532,1.16130685 3.22845109,3.22845109 C1.16130685,5.29559532 0,8.09924509 0,11.0226285 L0,21.6598309 L268.164,21.6598309 L268.164,11.0226285 C268.164,8.09924509 267.002693,5.29559532 264.935549,3.22845109 C262.868405,1.16130685 260.064755,0 257.141371,0 Z" id="Path" fill="#091F42" fill-rule="nonzero"></path>
                    <circle id="Oval" fill="#FFFFFF" fill-rule="nonzero" cx="14.391" cy="10.8299155" r="2.19375"></circle>
                    <circle id="Oval" fill="#FFFFFF" fill-rule="nonzero" cx="25.00875" cy="10.8299155" r="2.19375"></circle>
                    <circle id="Oval" fill="#FFFFFF" fill-rule="nonzero" cx="35.6265" cy="10.8299155" r="2.19375"></circle>
                    <rect id="Rectangle" fill-opacity="0.167650343" fill="#55B0EB" fill-rule="nonzero" x="22.815" y="55.9703372" width="58.968" height="58.968" rx="7.2"></rect>
                    <line x1="22.815" y1="129.085673" x2="81.783" y2="129.085673" id="Path" stroke="#D8EAF5" stroke-width="2.457"></line>
                    <line x1="22.815" y1="139.238337" x2="81.783" y2="139.238337" id="Path" stroke="#D8EAF5" stroke-width="2.457"></line>
                    <line x1="22.815" y1="149.390998" x2="81.783" y2="149.390998" id="Path" stroke="#D8EAF5" stroke-width="2.457"></line>
                    <line x1="22.815" y1="159.543663" x2="52.299" y2="159.543663" id="Path" stroke="#D8EAF5" stroke-width="2.457"></line>
                    <rect id="Rectangle" fill-opacity="0.167650343" fill="#55B0EB" fill-rule="nonzero" x="104.598" y="55.9703372" width="58.968" height="58.968" rx="7.2"></rect>
                    <rect id="Rectangle-Copy" fill-opacity="0.167650343" fill="#55B0EB" fill-rule="nonzero" x="186.198" y="55.9703372" width="58.968" height="58.968" rx="7.2"></rect>
                    <line x1="104.598" y1="129.085673" x2="163.566" y2="129.085673" id="Path" stroke="#D8EAF5" stroke-width="2.457"></line>
                    <line x1="104.598" y1="139.238337" x2="163.566" y2="139.238337" id="Path" stroke="#D8EAF5" stroke-width="2.457"></line>
                    <line x1="104.598" y1="149.390998" x2="163.566" y2="149.390998" id="Path" stroke="#D8EAF5" stroke-width="2.457"></line>
                    <line x1="104.598" y1="159.543663" x2="134.082" y2="159.543663" id="Path" stroke="#D8EAF5" stroke-width="2.457"></line>
                    <line x1="186.381" y1="129.085673" x2="245.349" y2="129.085673" id="Path" stroke="#D8EAF5" stroke-width="2.457"></line>
                    <line x1="186.381" y1="139.238337" x2="245.349" y2="139.238337" id="Path" stroke="#D8EAF5" stroke-width="2.457"></line>
                    <line x1="186.381" y1="149.390998" x2="245.349" y2="149.390998" id="Path" stroke="#D8EAF5" stroke-width="2.457"></line>
                    <line x1="186.381" y1="159.543663" x2="215.865" y2="159.543663" id="Path" stroke="#D8EAF5" stroke-width="2.457"></line>
                </g>
            </g>
        </g>
    </g>
</svg>