<?xml version="1.0" encoding="UTF-8"?>
<svg width="48px" height="48px" viewBox="0 0 48 48" version="1.1" xmlns="http://www.w3.org/2000/svg" xmlns:xlink="http://www.w3.org/1999/xlink">
    <title>91F8E004-440B-428B-9FAD-494AB8914607</title>
    <g id="Page-1" stroke="none" stroke-width="1" fill="none" fill-rule="evenodd">
        <g id="icons" transform="translate(-479.000000, -29.000000)">
            <g id="avatar-copy-5" transform="translate(479.000000, 29.000000)">
                <rect id="Rectangle" fill="#0FC5A4" x="0" y="0" width="48" height="48" rx="24"></rect>
                <g id="quickreply-24px" transform="translate(12.000000, 12.000000)">
                    <rect id="Rectangle" x="0" y="0" width="24" height="24"></rect>
                    <g id="Group" transform="translate(2.000000, 2.000000)" fill="#FFFFFF" fill-rule="nonzero">
                        <path d="M20,2 C20,0.9 19.1,0 18,0 L2,0 C0.9,0 0.01,0.9 0.01,2 L0,20 L4,16 L13,16 L13,8 L20,8 L20,2 Z" id="Path"></path>
                        <polygon id="Path" points="20.5 14 18.3 14 20 10 15 10 15 16 17 16 17 21"></polygon>
                    </g>
                </g>
            </g>
        </g>
    </g>
</svg>