<svg width="16" height="16" viewBox="0 0 16 16" fill="none" xmlns="http://www.w3.org/2000/svg">
<path d="M13.1583 16C5.90262 16.0003 -0.000268511 10.0974 9.16083e-09 2.84169C9.16083e-09 2.77106 0.0287317 2.70259 0.0786765 2.65265L2.57404 0.157286C2.78375 -0.0524286 3.1237 -0.0524286 3.33341 0.157286L6.71301 3.53689C6.92273 3.7466 6.92273 4.08655 6.71301 4.29626L4.4075 6.60178L9.39822 11.5925L11.7037 9.28699C11.9135 9.07727 12.2534 9.07727 12.4631 9.28699L15.8427 12.6666C16.0524 12.8763 16.0524 13.2162 15.8427 13.426L13.3474 15.9213C13.2974 15.9713 13.2289 16 13.1583 16Z" fill="#B0BEC5"/>
</svg>
