<?xml version="1.0" encoding="UTF-8"?>
<svg width="24px" height="24px" viewBox="0 0 24 24" version="1.1" xmlns="http://www.w3.org/2000/svg" xmlns:xlink="http://www.w3.org/1999/xlink">
    <title>CC2A42F0-970C-408B-A503-E1CF27E7737F</title>
    <g id="Page-1" stroke="none" stroke-width="1" fill="none" fill-rule="evenodd">
        <g id="Tribyl-icons" transform="translate(-320.000000, -604.000000)">
            <g id="slideshow-24px-(1)" transform="translate(320.000000, 604.000000)">
                <polygon id="Path" points="0 0 24 0 24 24 0 24"></polygon>
                <path d="M10,8 L10,16 L15,12 L10,8 Z M19,3 L5,3 C3.9,3 3,3.9 3,5 L3,19 C3,20.1 3.9,21 5,21 L19,21 C20.1,21 21,20.1 21,19 L21,5 C21,3.9 20.1,3 19,3 Z M19,19 L5,19 L5,5 L19,5 L19,19 Z" id="Shape" fill="#505F79" fill-rule="nonzero"></path>
            </g>
        </g>
    </g>
</svg>