<?xml version="1.0" encoding="UTF-8"?>
<svg width="48px" height="48px" viewBox="0 0 48 48" version="1.1" xmlns="http://www.w3.org/2000/svg" xmlns:xlink="http://www.w3.org/1999/xlink">
    <title>DA70931A-5D31-4735-A928-C6649C3BF556</title>
    <g id="Page-1" stroke="none" stroke-width="1" fill="none" fill-rule="evenodd">
        <g id="icons" transform="translate(-206.000000, -29.000000)">
            <g id="avatar-copy-2" transform="translate(206.000000, 29.000000)">
                <rect id="Rectangle" fill="#4B80D3" x="0" y="0" width="48" height="48" rx="24"></rect>
                <g id="local_offer-24px" transform="translate(12.000000, 12.000000)">
                    <polygon id="Path" points="0 0 24 0 24 24 0 24"></polygon>
                    <path d="M21.41,11.58 L12.41,2.58 C12.05,2.22 11.55,2 11,2 L4,2 C2.9,2 2,2.9 2,4 L2,11 C2,11.55 2.22,12.05 2.59,12.42 L11.59,21.42 C11.95,21.78 12.45,22 13,22 C13.55,22 14.05,21.78 14.41,21.41 L21.41,14.41 C21.78,14.05 22,13.55 22,13 C22,12.45 21.77,11.94 21.41,11.58 Z M5.5,7 C4.67,7 4,6.33 4,5.5 C4,4.67 4.67,4 5.5,4 C6.33,4 7,4.67 7,5.5 C7,6.33 6.33,7 5.5,7 Z" id="Shape" fill="#FFFFFF" fill-rule="nonzero"></path>
                </g>
            </g>
        </g>
    </g>
</svg>