<svg width="8" height="16" viewBox="0 0 8 16" fill="none" xmlns="http://www.w3.org/2000/svg">
<path d="M5.99999 12C5.99999 13.1046 5.10455 14 3.99999 14C2.89543 14 1.99999 13.1046 1.99999 12C1.99999 11.2598 2.40236 10.6141 2.99999 10.2682V7C2.99999 6.44772 3.44771 6 3.99999 6C4.55227 6 4.99999 6.44772 4.99999 7V10.2682C5.59761 10.6141 5.99999 11.2598 5.99999 12ZM6.99999 9.35459C7.62224 10.0597 7.99999 10.9857 7.99999 12C7.99999 14.2092 6.20927 16 3.99999 16C3.99065 16 3.98096 16 3.97158 15.9999C1.77465 15.9847 -0.0111662 14.1761 5.25707e-05 11.9792C0.00517757 10.973 0.382021 10.0548 0.99999 9.35459V3C0.99999 1.34316 2.34315 0 3.99999 0C5.65683 0 6.99999 1.34316 6.99999 3V9.35459ZM6.49999 12C6.49999 10.9269 5.89468 10.3691 5.49999 9.92181V3C5.49999 2.17291 4.82708 1.5 3.99999 1.5C3.1729 1.5 2.49999 2.17291 2.49999 3V9.92181C2.10211 10.3727 1.50546 10.9249 1.50002 11.9868C1.49302 13.3579 2.61136 14.4904 3.98199 14.4999L3.99999 14.5C5.37849 14.5 6.49999 13.3785 6.49999 12Z" fill="#27AE60"/>
</svg>
