<svg width="8" height="16" viewBox="0 0 8 16" fill="none" xmlns="http://www.w3.org/2000/svg">
<path d="M6.99999 3C6.99999 1.34316 5.65683 0 3.99999 0C2.34315 0 0.99999 1.34316 0.99999 3V9.35459C0.382021 10.0549 0.00517757 10.973 5.25707e-05 11.9792C-0.0111662 14.1761 1.77465 15.9847 3.97158 15.9999C3.98093 16 3.99065 16 3.99999 16C6.2093 16 7.99999 14.2092 7.99999 12C7.99999 10.9857 7.62224 10.0597 6.99999 9.35459V3ZM3.99999 14.5L3.98199 14.4999C2.61136 14.4904 1.49302 13.3579 1.50002 11.9868C1.50543 10.9249 2.10208 10.3727 2.49999 9.92181V3C2.49999 2.17291 3.1729 1.5 3.99999 1.5C4.82708 1.5 5.49999 2.17291 5.49999 3V9.92181C5.89468 10.3691 6.49999 10.9269 6.49999 12C6.49999 13.3785 5.37849 14.5 3.99999 14.5ZM5.99999 12C5.99999 13.1046 5.10455 14 3.99999 14C2.89543 14 1.99999 13.1046 1.99999 12C1.99999 11.2598 2.40236 10.6141 2.99999 10.2682V3C2.99999 2.44772 3.44771 2 3.99999 2C4.55227 2 4.99999 2.44772 4.99999 3V10.2682C5.59761 10.6141 5.99999 11.2598 5.99999 12Z" fill="#27AE60"/>
</svg>
