<svg width="42" height="42" viewBox="0 0 42 42" fill="none" xmlns="http://www.w3.org/2000/svg">
<path d="M20.7812 0L20.6168 0.0542502L1.36675 4.32075L0 4.648V37.352L1.36675 37.6793L20.6168 41.9457L20.7812 42H24.5V36.75H42V5.25H24.5V0H20.7812ZM21 3.55425V38.4475L3.5 34.615V7.385L21 3.55425ZM24.5 8.75H38.5V33.25H24.5V29.75H28V26.25H24.5V24.5H28V21H24.5V19.25H28V15.75H24.5V14H28V10.5H24.5V8.75ZM29.75 10.5V14H36.75V10.5H29.75ZM17.773 12.25L13.7812 12.7418L11.5938 17.4457C11.361 18.1212 11.1912 18.6357 11.102 18.977H11.0477C10.9385 18.4746 10.7923 17.9809 10.6102 17.5L9.51475 13.4523L5.79775 13.8898L5.63325 14L8.75 21L5.25 28L9.023 28.4375L10.5543 24.1168C10.7398 23.5708 10.8902 23.1262 10.9375 22.8602H10.9918C11.095 23.4272 11.1633 23.8508 11.2648 24.0625L13.6168 29.204L17.885 29.75L13.237 20.9457L17.773 12.25ZM29.75 15.75V19.25H36.75V15.75H29.75ZM29.75 21V24.5H36.75V21H29.75ZM29.75 26.25V29.75H36.75V26.25H29.75Z" fill="white"/>
</svg>
