<?xml version="1.0" encoding="UTF-8"?>
<svg width="40px" height="40px" viewBox="0 0 40 40" version="1.1" xmlns="http://www.w3.org/2000/svg" xmlns:xlink="http://www.w3.org/1999/xlink">
    <title>222FB0A9-5DA5-43AB-B2F8-0710028D5419</title>
    <defs>
        <circle id="path-1" cx="20" cy="20" r="20"></circle>
    </defs>
    <g id="Login-flow" stroke="none" stroke-width="1" fill="none" fill-rule="evenodd">
        <g id="icons-and-component" transform="translate(-893.000000, -64.000000)">
            <g id="avatar/male-copy-2" transform="translate(893.000000, 64.000000)">
                <mask id="mask-2" fill="white">
                    <use xlink:href="#path-1"></use>
                </mask>
                <use id="Oval" fill="#F4F5F7" xlink:href="#path-1"></use>
                <g id="Artboard-12" mask="url(#mask-2)" fill-rule="nonzero">
                    <g transform="translate(6.000000, 5.000000)">
                        <path d="M29.6621739,30.9130435 C20.9428614,37.626691 8.78099118,37.5729915 0.121304348,30.7826087 L6.46826087,27.8073913 C6.77052748,27.6652981 7.06063044,27.4986525 7.33565217,27.3091304 C7.41913043,27.2517391 7.5026087,27.1917391 7.58217391,27.1291304 C8.27294189,26.6005931 8.8415326,25.9292289 9.24913043,25.1608696 C9.55727594,24.5704982 9.76197732,23.9316887 9.85434783,23.2721739 C9.91804646,22.8442398 9.95030672,22.4122138 9.95086957,21.9795652 C9.95086957,21.2334783 9.91043478,20.4873913 9.9026087,19.74 C9.8973913,19.326087 9.89304348,18.9126087 9.88956522,18.4995652 L10.1504348,18.63 L10.8286957,18.9808696 L11.1430435,19.0343478 L14.7795652,19.6526087 L18.8386957,20.343913 L18.9613043,24.5178261 L19.0017391,25.8821739 L19.0213043,26.5447826 L19.0213043,26.5878261 L20.5995652,27.2295652 L29.6621739,30.9130435 Z" id="Path" fill="#BC7167"></path>
                        <path d="M23.0126087,14.9869565 C22.8098018,15.1990591 22.5875213,15.391644 22.3486957,15.5621739 C20.9921739,16.5443478 19.1817391,16.8665217 17.6347826,17.396087 C16.9826087,17.6191304 9.91043478,19.6291304 9.91043478,20.066087 C9.91043478,19.9708696 9.21782609,19.2834783 8.34521739,18.4486957 C5.33551914,15.5661286 4.33213729,11.1678688 5.79391304,7.26521739 C7.21695652,3.52565217 11.7534783,0.94826087 15.5530435,0.352173913 C17.3621739,0.0691304348 19.5091304,-0.0886956522 21.18,0.778695652 C22.0343478,1.22347826 22.7452174,1.87173913 23.3973913,2.59043478 C23.6008696,2.8173913 23.7982609,3.04913043 23.9895652,3.28565217 C24.0717391,3.38478261 24.1526087,3.48391304 24.2321739,3.58434783 C27.2021739,7.31478261 26.1495652,11.6908696 23.0126087,14.9869565 Z" id="Path" fill="#8C4E61"></path>
                        <path d="M23.0126087,14.9869565 C22.8098018,15.1990591 22.5875213,15.391644 22.3486957,15.5621739 C22.2929973,15.465126 22.242915,15.3649613 22.1986957,15.2621739 C21.8543478,14.4795652 21.6769565,13.6304348 21.5465217,12.783913 C21.3433938,11.5519698 21.2045104,10.3102909 21.1304348,9.06391304 C21.0117391,7.06304348 20.1573913,6.07043478 21.8569565,4.51043478 C22.4685891,3.94990114 23.1969567,3.53203637 23.9895652,3.28695652 C24.0717391,3.38608696 24.1526087,3.48521739 24.2321739,3.58565217 C27.2021739,7.31478261 26.1495652,11.6908696 23.0126087,14.9869565 Z" id="Path" fill="#954A61"></path>
                        <circle id="Oval" fill="#E18477" cx="8.60608696" cy="14.85" r="2.2173913"></circle>
                        <path d="M9.47608696,12.7473913 C9.58434783,14.163913 9.58043478,15.8934783 9.61826087,16.3995652 C9.71652174,17.6682609 9.81391304,18.9365217 9.91043478,20.2043478 L18.5765217,25.2665217 C19.8203142,25.7314265 21.2137632,25.1752891 21.7956522,23.9817391 C23.0426087,21.4278261 25.0434783,17.3947826 24.78,15.8947826 C24.3886957,13.6773913 23.3452174,12.8947826 23.3452174,12.8947826 L23.7795652,10.293913 C24.2191304,7.65 23.3126087,5.14695652 20.223913,4.8573913 C19.5717391,4.7973913 18.8452174,4.92130435 18.4578261,5.44173913 C17.4143478,6.84521739 18.0156522,8.57217391 16.4491304,9.87652174 C14.5473913,11.4456522 10.3043478,12.1304348 9.31043478,10.863913 C9.31043478,10.863913 9.40173913,11.76 9.47608696,12.7473913 Z" id="Path" fill="#DE8276"></path>
                        <path d="M29.6621739,30.9130435 C20.9428614,37.626691 8.78099118,37.5729915 0.121304348,30.7826087 L6.46826087,27.8073913 C6.77052748,27.6652981 7.06063044,27.4986525 7.33565217,27.3091304 C7.41913043,27.2517391 7.5026087,27.1917391 7.58217391,27.1291304 C8.27294189,26.6005931 8.8415326,25.9292289 9.24913043,25.1608696 C9.55727594,24.5704982 9.76197732,23.9316887 9.85434783,23.2721739 C9.94646439,23.3614337 10.043114,23.4458933 10.143913,23.5252174 C10.943677,24.1166211 11.8116446,24.6097248 12.7291304,24.993913 C13.1745612,25.1797183 13.6300585,25.3404052 14.0934783,25.4752174 C15.4896527,25.8823331 16.947379,26.0364987 18.3978261,25.9304348 C18.5986957,25.9147826 18.8008696,25.8952174 19.0017391,25.8808696 L19.0213043,26.5434783 L19.0213043,26.5865217 L20.5995652,27.2282609 L29.6621739,30.9130435 Z" id="Path" fill="#00214E"></path>
                    </g>
                </g>
            </g>
        </g>
    </g>
</svg>