<?xml version="1.0" encoding="UTF-8"?>
<svg width="40px" height="40px" viewBox="0 0 40 40" version="1.1" xmlns="http://www.w3.org/2000/svg" xmlns:xlink="http://www.w3.org/1999/xlink">
    <title>7E1CEA24-155D-4EF3-B347-5FE4FF95BB5D</title>
    <g id="Login-flow" stroke="none" stroke-width="1" fill="none" fill-rule="evenodd">
        <g id="icons-and-component" transform="translate(-781.000000, -64.000000)">
            <g id="Group-2" transform="translate(781.000000, 64.000000)">
                <circle id="Oval" fill="#F4F5F7" cx="20" cy="20" r="20"></circle>
                <g id="Artboard-5" transform="translate(7.000000, 6.000000)" fill-rule="nonzero">
                    <path d="M24,10.5 C24,11.3987927 22.983521,12.1525451 22.7619514,12.9816728 C22.5335291,13.8404938 23.0292054,14.9996737 22.5952031,15.751142 C22.1612008,16.5026104 20.8968837,16.6647814 20.2790015,17.2780618 C19.6611193,17.8913422 19.5126448,19.1533065 18.7508566,19.5941375 C17.9890684,20.0349685 16.8401044,19.5324668 15.9823789,19.7620187 C15.1532061,19.9835762 14.3994126,21 13.4994289,21 C12.5994453,21 11.8467939,19.9835762 11.0176211,19.7620187 C10.1598956,19.5336089 8.99951052,20.0292582 8.24914342,19.5941375 C7.49877631,19.1590168 7.3354544,17.8970524 6.72099853,17.2780618 C6.10654267,16.6590711 4.84565182,16.5128888 4.40479687,15.751142 C3.96394192,14.9893953 4.46647088,13.8404938 4.23804862,12.9816728 C4.01647903,12.1525451 3,11.3987927 3,10.5 C3,9.60120731 4.01647903,8.84745486 4.23804862,8.01832717 C4.46647088,7.1595062 3.97079458,6.0003263 4.40479687,5.24885795 C4.83879915,4.4973896 6.10311633,4.33521862 6.72099853,3.72193822 C7.33888073,3.10865782 7.48621309,1.8466935 8.24914342,1.40586252 C9.01207375,0.965031542 10.1598956,1.46753317 11.0176211,1.23798129 C11.8467939,1.01642375 12.6005874,0 13.4994289,0 C14.3982705,0 15.1532061,1.01642375 15.9823789,1.23798129 C16.8401044,1.46639112 17.9993474,0.970741788 18.7508566,1.40586252 C19.5023658,1.84098325 19.6645456,3.10294757 20.2790015,3.72193822 C20.8934573,4.34092887 22.1543482,4.48711116 22.5952031,5.24885795 C23.0360581,6.01060474 22.532387,7.1595062 22.7619514,8.01832717 C22.983521,8.84745486 24,9.60120731 24,10.5 Z" id="Path" fill="#091F42"></path>
                    <circle id="Oval" fill="#E18477" cx="8" cy="16" r="2"></circle>
                    <circle id="Oval" fill="#FFD2A9" cx="8" cy="16" r="2"></circle>
                    <path d="M26,29.6935875 C18.3258141,35.4770574 7.62170718,35.4307979 0,29.5812245 L5.58618863,27.0182243 C5.85222453,26.8958182 6.10755476,26.7522613 6.34961144,26.5889976 C6.42308372,26.5395579 6.49655599,26.4878709 6.56658425,26.4339366 C7.17455441,25.9786283 7.67499189,25.4002818 8.03373366,24.7383788 C8.49293536,23.8900381 8.64447192,22.9529306 8.65135994,21.9978451 C8.65135994,21.3551287 8.61577181,20.7124122 8.60888379,20.0685722 C8.60429177,19.712756 8.60046509,19.3565653 8.59740374,19 L8.82700459,19.112363 L9.42167079,19.4202377 L9.69833981,19.4663065 L12.8989756,19.9989071 L16.4715648,20.5944311 L16.5794772,24.1900474 L16.6322854,25.9361685 L16.6322854,25.9732483 L18.0213705,26.5260743 L26,29.6935875 Z" id="Path" fill="#EEC49A"></path>
                    <path d="M8.27704543,11.9449437 C8.18933026,12.0606547 8.11160795,12.2862911 8.02833405,12.6519379 C7.83624893,13.5000997 8.67787045,19.0692708 8.83886665,20.7077388 L12.8826471,23.8157366 C14.226574,24.8613663 15.9431733,25.2395439 17.5781845,24.8501931 C18.2299416,24.6893548 18.6429801,24.5852149 18.9372145,24.040216 C19.5056977,22.9988169 20.9013682,19.4360747 20.9924143,16.9228315 C21.0179516,16.2100516 21.0012968,15.1223681 20.5793758,14.5137282 C20.3739668,14.2186651 20.2684865,14.2128795 20.3428779,13.7951628 C20.4172692,13.377446 20.5294114,12.9308015 20.6215679,12.4980423 C20.8758308,11.3027475 21.0790191,9.95239998 20.7115037,8.76289075 C20.5160876,8.12648017 20.1707785,7.70529207 19.6800177,7.29683219 C19.1559473,6.85944456 18.9394352,6.88027254 18.625215,7.52825422 C18.4131441,7.96795608 18.199963,8.33823132 17.7702696,8.58816712 C17.1473809,8.94802837 16.7232392,8.71429212 16.1047917,8.66453639 C15.5629562,8.62172331 15.6206928,9.05795384 15.5018887,9.47451349 C15.3788809,9.91178552 15.1129588,10.2904327 14.750203,10.5448404 C14.0759238,11.0007669 13.2086164,11.0057381 12.5295657,10.5575686 C12.437449,10.488687 12.3264849,10.4525748 12.2131249,10.4545858 C11.8422785,10.4754138 11.8256237,10.9394149 11.7412395,11.2726627 C11.5624782,11.9669287 10.7841449,12.3510893 10.0924164,12.295548 C8.96433265,12.2076077 8.56239731,11.5526833 8.27704543,11.9449437 Z" id="Path" fill="#FFD2A9"></path>
                    <path d="M26,29.4466017 C18.3258141,35.5617711 7.62170718,35.5128585 0,29.3277944 L5.58618863,26.6177983 C5.85222453,26.4883718 6.10755476,26.3365816 6.34961144,26.1639542 C6.42308372,26.1116789 6.49655599,26.0570275 6.56658425,26 C9.27013423,27.9912115 12.9598199,29.2470053 16.1512716,27.7607252 C16.9112504,27.4043031 17.609237,26.8292754 18.0225185,26.0902936 L26,29.4466017 Z" id="Path" fill="#2CB2F1"></path>
                </g>
            </g>
        </g>
    </g>
</svg>