<?xml version="1.0" encoding="UTF-8"?>
<svg width="40px" height="40px" viewBox="0 0 40 40" version="1.1" xmlns="http://www.w3.org/2000/svg" xmlns:xlink="http://www.w3.org/1999/xlink">
    <title>EB082F21-553B-4523-AB54-BBB7E0EFE4D8</title>
    <defs>
        <circle id="path-1" cx="20" cy="20" r="20"></circle>
    </defs>
    <g id="Login-flow" stroke="none" stroke-width="1" fill="none" fill-rule="evenodd">
        <g id="icons-and-component" transform="translate(-949.000000, -64.000000)">
            <g id="avatar/male-copy-3" transform="translate(949.000000, 64.000000)">
                <mask id="mask-2" fill="white">
                    <use xlink:href="#path-1"></use>
                </mask>
                <use id="Oval" fill="#F4F5F7" xlink:href="#path-1"></use>
                <g id="Artboard-9" mask="url(#mask-2)" fill-rule="nonzero">
                    <g transform="translate(7.000000, 4.000000)">
                        <path d="M13.90275,6.546375 C13.748625,7.207875 12.86775,7.534125 12.495375,8.05275 C12.1095,8.591625 12.074625,9.5265 11.521125,9.87075 C10.967625,10.215 10.112625,9.8325 9.460125,9.9405 C8.829,10.045125 8.146125,10.692 7.48575,10.537875 C6.825375,10.38375 6.498,9.50175 5.979375,9.129375 C5.4405,8.7435 4.505625,8.708625 4.161375,8.155125 C3.817125,7.601625 4.199625,6.74775 4.091625,6.094125 C3.987,5.463 3.340125,4.78125 3.49425,4.11975 C3.648375,3.45825 4.530375,3.132 4.90275,2.613375 C5.288625,2.0745 5.3235,1.139625 5.877,0.795375 C6.4305,0.451125 7.284375,0.833625 7.938,0.725625 C8.569125,0.621 9.250875,-0.02475 9.912375,0.129375 C10.573875,0.2835 10.900125,1.164375 11.41875,1.53675 C11.957625,1.922625 12.8925,1.9575 13.23675,2.511 C13.581,3.0645 13.1985,3.9195 13.3065,4.573125 C13.411125,5.203125 14.0625,5.886 13.90275,6.546375 Z" id="Path" fill="#954A61"></path>
                        <path d="M15.9075,21.7125 C15.624,22.05 15.37875,22.419 15.09075,22.750875 C13.5585,24.512625 10.2195,23.355 8.559,22.300875 C7.340625,21.53025 6.4215,20.368125 5.634,19.157625 C4.6665,17.66475 3.857625,16.041375 3.50775,14.297625 C1.904625,6.31125 12.15,2.83725 17.895375,6.757875 C20.032875,8.220375 21.965625,11.500875 21.495375,14.13 C21.25575,15.46425 20.30625,16.664625 20.4075,18.01575 C20.52,19.4715 21.83625,20.858625 21.285,22.210875 C21.069,22.739625 20.604375,23.117625 20.226375,23.54625 C19.71675,24.125625 19.3455,24.850125 19.3005,25.619625 C19.2555,26.389125 19.576125,27.194625 20.21175,27.635625 C18.644625,27.426375 17.67825,25.549875 18.084375,24.022125 C18.217125,23.520375 18.46125,23.052375 18.568125,22.543875 C18.675,22.035375 18.613125,21.44475 18.225,21.1005 C17.726625,20.658375 16.914375,20.826 16.390125,21.23775 C16.2139495,21.3796543 16.0522832,21.5386827 15.9075,21.7125 L15.9075,21.7125 Z" id="Path" fill="#954A61"></path>
                        <path d="M25.583625,31.6215 C18.0632179,37.412021 7.57360489,37.3657051 0.104625,31.509 L5.578875,28.942875 C5.74643875,28.8636391 5.90978288,28.7757713 6.06825,28.679625 L6.19425,28.600875 C6.23925,28.57275 6.283125,28.5435 6.327,28.513125 C7.01737089,28.0372964 7.58336771,27.4026237 7.977375,26.6625 C8.427375,25.813125 8.575875,24.874875 8.582625,23.918625 C8.582625,23.275125 8.54775,22.631625 8.541,21.987 C8.5365,21.63075 8.53275,21.274125 8.52975,20.917125 L8.55225,20.928375 L8.7525,21.031875 L9.3375,21.3345 L12.745125,21.913875 L16.246125,22.510125 L16.327125,25.263 L16.351875,26.10675 L16.40475,27.892125 L17.695125,28.4175 L18.707625,28.827 L25.583625,31.6215 Z" id="Path" fill="#C76D63"></path>
                        <path d="M25.583625,31.622625 C18.0632179,37.413146 7.57360489,37.3668301 0.104625,31.510125 L5.578875,28.944 C5.74668528,28.8645293 5.9103921,28.7766683 6.069375,28.68075 C8.73225,30.639375 12.44025,31.915125 15.6375,30.48075 C16.54425,30.0735 17.362125,29.350125 17.695125,28.420875 L18.707625,28.830375 L25.583625,31.622625 Z" id="Path" fill="#002151"></path>
                        <circle id="Oval" fill="#EC7C72" cx="5.71725" cy="17.314875" r="1.9125"></circle>
                        <path d="M18.7155,14.418 C20.03625,18.995625 17.2305,24.525 15.50475,24.525 C13.14225,24.525 7.40475,22.638375 6.085125,18.06075 C4.7655,13.483125 6.525,8.960625 10.0125,7.95375 C13.5,6.946875 17.39475,9.8415 18.7155,14.418 Z" id="Path" fill="#EC7C72"></path>
                        <path d="M14.79825,8.79975 C14.52825,9.333 13.96575,9.7965 13.631625,10.342125 C13.194,11.0565 12.86325,11.83275 12.492,12.583125 C12.216375,13.145625 11.90925,13.701375 11.442375,14.11425 C10.9755,14.527125 10.317375,14.77125 9.72,14.599125 C9.3105,14.481 8.978625,14.1885 8.611875,13.971375 C8.245125,13.75425 7.776,13.609125 7.40025,13.811625 C6.84675,14.108625 6.854625,14.91525 6.458625,15.402375 C5.55075,16.5195 3.884625,15.01425 3.68325,14.038875 C3.39075,12.6135 4.559625,11.422125 5.410125,10.438875 C6.12,9.617625 7.0785,8.364375 8.19225,8.091 C8.2125,8.091 14.71725,5.5035 14.71725,5.5035 C14.77575,6.373125 15.12675,7.659 14.9175,8.4915 C14.8895253,8.59842592 14.8495199,8.7018361 14.79825,8.79975 L14.79825,8.79975 Z" id="Path" fill="#954A61"></path>
                    </g>
                </g>
            </g>
        </g>
    </g>
</svg>