<?xml version="1.0" encoding="UTF-8"?>
<svg width="40px" height="40px" viewBox="0 0 40 40" version="1.1" xmlns="http://www.w3.org/2000/svg" xmlns:xlink="http://www.w3.org/1999/xlink">
    <title>F90FF4BA-C286-4DC8-B058-276D6EA09744</title>
    <defs>
        <circle id="path-1" cx="20" cy="20" r="20"></circle>
    </defs>
    <g id="Login-flow" stroke="none" stroke-width="1" fill="none" fill-rule="evenodd">
        <g id="icons-and-component" transform="translate(-837.000000, -64.000000)">
            <g id="avatar/male-copy" transform="translate(837.000000, 64.000000)">
                <mask id="mask-2" fill="white">
                    <use xlink:href="#path-1"></use>
                </mask>
                <use id="Oval" fill="#F4F5F7" xlink:href="#path-1"></use>
                <g id="Artboard-29" mask="url(#mask-2)" fill-rule="nonzero">
                    <g transform="translate(3.000000, 3.000000)">
                        <path d="M18.9676018,24.1724525 C17.6123077,24.1489955 16.2557104,24.0838371 14.8469864,23.9978281 C13.0916199,23.8896652 10.9583348,24.3236199 9.28246154,23.6511855 C7.6561086,22.9996018 6.6200905,21.96619 5.55149321,20.6539005 C4.99504072,19.9749502 4.13625339,19.6296109 3.30352941,19.350733 C2.47080543,19.0718552 1.60159276,18.8151312 0.931764706,18.2469502 C0.261936652,17.6787692 -0.145954751,16.6922715 0.237176471,15.9012489 C1.17936652,13.9582262 4.24441629,14.6072036 4.25093213,11.6750769 C4.25093213,10.6781538 3.80655204,9.56133937 4.39819005,8.75858824 C4.59883179,8.51567233 4.84383485,8.31312468 5.1201448,8.16173756 C6.46240724,7.33422624 8.19301357,7.41502262 9.52485068,6.59793665 C11.0287059,5.66747511 10.7159457,3.90689593 12.0556018,2.67931222 C12.5030359,2.28943996 12.9865131,1.94297707 13.4995113,1.64459729 C17.007638,-0.526479638 20.6343529,-0.32318552 24.2284887,1.74494118 C26.1506606,2.85393665 27.8200181,4.84257014 28.6058281,6.90678733 C29.4776471,9.20557466 27.7574661,11.761086 29.2052851,13.7601448 C29.5336833,14.2136471 29.9689412,14.5811403 30.3247059,15.0137919 C31.8155294,16.8251946 29.5206516,17.9407059 28.5797647,19.1708959 C27.8252308,20.16 27.9412127,21.6065158 27.2166516,22.6177738 C26.3761086,23.7906244 24.7406335,23.9874027 23.2954208,24.0773213 C21.8111131,24.1750588 20.3893575,24.1972127 18.9676018,24.1724525 Z" id="Path" fill="#845161"></path>
                        <path d="M33.8380452,30.9124344 C25.1266235,37.6200062 12.9757595,37.5663553 4.3239095,30.7821176 L10.6651222,27.8095928 C10.8592232,27.7178082 11.0484363,27.6160246 11.232,27.5046516 L11.3779548,27.4134299 C11.4300814,27.3808507 11.480905,27.3469683 11.5317285,27.3117828 C12.3317498,26.7598616 12.9874098,26.0237525 13.4434751,25.1654661 C13.9647421,24.1815747 14.1367602,23.094733 14.1445792,21.9870407 C14.1445792,21.3784615 14.119819,20.7698824 14.104181,20.1626063 C14.104181,20.0253394 14.1015747,19.8885068 14.096362,19.7521086 C14.0911493,19.3394389 14.0868054,18.9263348 14.0833303,18.5127964 L14.3439638,18.6431131 L15.0216109,18.9936652 L18.968905,19.6647964 L23.024362,20.3554751 L23.1429502,24.3822624 L23.1429502,24.5217014 L23.2041991,26.5898281 L24.6989321,27.1984072 L25.8717828,27.6727602 L33.8380452,30.9124344 Z" id="Path" fill="#F5C394"></path>
                        <circle id="Oval" fill="#FFD0A3" cx="11.6073122" cy="14.0781176" r="2.21538462"></circle>
                        <path d="M25.8822081,10.9843982 C27.4121267,16.2869864 24.160724,22.6959638 22.1629683,22.6959638 C19.4263167,22.6959638 12.7801629,20.5092489 11.2515475,15.2079638 C9.72293213,9.90667873 11.7545701,4.66273303 15.7943891,3.49639819 C19.8342081,2.33006335 24.3509864,5.68311312 25.8822081,10.9843982 Z" id="Path" fill="#FFD0A3"></path>
                        <path d="M20.8376471,3.93556561 C20.2772851,6.37379186 19.0536109,8.44322172 16.8160724,9.94968326 C14.4039095,11.6203439 11.854914,12.4257014 9.07656109,12.9808507 C9.14693213,11.2723982 8.95927602,8.86935747 9.84021719,7.34465158 C10.8400402,5.65316283 12.300375,4.28096343 14.0507511,3.38823529 C15.9794389,2.39131222 18.9649955,1.41393665 21.1334661,2.10591855 C21.0737214,2.7214521 20.9749159,3.33256624 20.8376471,3.93556561 L20.8376471,3.93556561 Z" id="Path" fill="#845161"></path>
                        <path d="M33.8380452,30.9124344 C25.1266235,37.6200062 12.9757595,37.5663553 4.3239095,30.7821176 L10.6651222,27.8095928 C10.9671152,27.6676282 11.2569557,27.5011334 11.5317285,27.3117828 C11.6151312,27.2544434 11.6985339,27.1944977 11.7780271,27.1319457 C12.46817,26.6038867 13.0362461,25.9331301 13.4434751,25.1654661 C13.7513418,24.5756289 13.9558579,23.9373976 14.0481448,23.2784796 C14.140178,23.3676587 14.2367401,23.4520418 14.337448,23.5312941 C15.1364882,24.1221627 16.0036703,24.6148201 16.9203258,24.9986606 C17.3653535,25.1842977 17.8204386,25.3448392 18.2834389,25.4795294 C19.6783499,25.8862767 21.1347569,26.0403028 22.5838914,25.9343348 C22.7845792,25.9186968 22.9865701,25.8991493 23.1872579,25.8848145 L23.2068054,26.5468235 L23.2068054,26.5846154 L24.783638,27.2257738 L33.8380452,30.9124344 Z" id="Path" fill="#00B4F7"></path>
                    </g>
                </g>
            </g>
        </g>
    </g>
</svg>