<?xml version="1.0" encoding="UTF-8"?>
<svg width="16px" height="16px" viewBox="0 0 16 16" version="1.1" xmlns="http://www.w3.org/2000/svg" xmlns:xlink="http://www.w3.org/1999/xlink">
    <title>44FC0DC6-453F-4B76-AD95-860CB474AD73</title>
    <g id="Login-flow" stroke="none" stroke-width="1" fill="none" fill-rule="evenodd" stroke-linecap="round" stroke-linejoin="round">
        <g id="icons-and-component" transform="translate(-166.000000, -420.000000)" stroke="#52627A" stroke-width="1.5">
            <g id="icon/like/16px/unselected" transform="translate(166.000000, 420.000000)">
                <g id="Group" transform="translate(1.000000, 1.000000)">
                    <path d="M3.558863,6.06403 L5.83751,0.867349 C6.153,0.147847 6.99993,-0.223916 7.68677,0.14392 C8.75567,0.71638 8.54126,1.252965 8.54126,4.621106 L12.57613,4.621106 C13.44861,4.621106 14.11578,5.409362 13.98313,6.28341 L12.9976,12.77647 C12.89078,13.48039 12.29326,13.9999997 11.5906,13.9999997 L3.558863,13.9999997 M3.558863,6.06403 L3.558863,14 M3.558863,6.06403 L1.423548,6.06403 C0.637343,6.06403 0,6.70999 0,7.50694 L0,12.55709 C0,13.35397 0.637343,14 1.423548,14 L3.558863,14" id="Shape"></path>
                </g>
            </g>
        </g>
    </g>
</svg>